<?xml version="1.0" encoding="UTF-8"?><svg id="Layer_1" xmlns="http://www.w3.org/2000/svg" viewBox="0 0 155.56 53.4"><path d="M90.36,18.51h-7.46v-9.56h-5.3v24.44h5.3v-9.58h7.46v9.58h5.3V8.95h-5.3v9.56Z"/><path d="M45.95,33.39h5.3v-17.01c0-4.11-3.33-7.44-7.44-7.44s-7.43,3.33-7.43,7.44v9.57c0,1.18-.96,2.14-2.14,2.14s-2.14-.96-2.14-2.14V8.95h-5.3v17.01c0,4.11,3.33,7.44,7.44,7.44s7.25-3.15,7.43-7.11h0v-9.9c0-1.18.96-2.14,2.14-2.14s2.14.96,2.14,2.14v17.01h0Z"/><path d="M148.12,8.95c-4.11,0-7.44,3.33-7.44,7.44v9.57c0,1.18-.96,2.14-2.14,2.14s-2.14-.96-2.14-2.14V8.95h-5.3v17.01c0,4.11,3.33,7.44,7.44,7.44s7.26-3.15,7.43-7.11h0v-9.9c0-1.18.96-2.14,2.14-2.14s2.14.96,2.14,2.14v17.01h5.3v-17.01c0-4.11-3.33-7.44-7.43-7.44h0Z"/><path d="M72.69,12.99c-1.24-2.57-3.83-4.04-7.09-4.04h-10.23v24.44h10.23c3.29,0,5.88-1.48,7.12-4.05,1.21-2.51.87-5.64-.83-7.77l-.27-.33.26-.33c1.72-2.18,2.05-5.37.81-7.92h0ZM67.43,27.49c-.47.4-1.12.62-1.89.62h-4.87v-4.27h4.87c1.7,0,2.58,1.14,2.58,2.18,0,.56-.26,1.1-.7,1.48ZM67.44,17.95c-.47.43-1.11.58-1.88.58h-4.89v-4.29h4.87c1.7,0,2.59,1.1,2.59,2.18,0,.58-.25,1.13-.69,1.53h0Z"/><path d="M126.99,8.95h-5.33v24.44h5.33V8.95Z"/><path d="M116.34,19.28c-1.65-1.54-3.79-2.31-6.42-2.31h-4.8v-8.03h-5.33v18.19c0,3.45,2.85,6.25,6.36,6.25h3.77c2.63,0,4.77-.77,6.42-2.31,1.65-1.54,2.47-3.5,2.47-5.9s-.82-4.36-2.47-5.9h0ZM112.32,27.58c-.65.62-1.51.92-2.58.92h-4.62v-6.63h4.62c1.07,0,1.92.31,2.58.92.65.62.98,1.41.98,2.39s-.33,1.78-.98,2.39h0Z"/><path d="M21.24,21.63s0-.02-.01-.03v-3.7c0-.07,0-.15,0-.22h0c-.16-4.85-4.13-8.73-9.01-8.73S3.35,12.83,3.19,17.68h0c0,.07,0,.15,0,.22v3.7s0,.02-.01.03v6.46H0v5.31h24.41v-5.31h-3.17v-6.46ZM8.48,28.09v-9.83h0v-.39c.03-1.77,1.57-3.37,3.3-3.58.04,0,.09,0,.13-.01.02,0,.03,0,.04,0,.07,0,.14,0,.21,0,.01,0,.03,0,.04,0s.02,0,.04,0c.07,0,.14,0,.21,0,.01,0,.03,0,.04,0,.04,0,.09,0,.13.01,1.73.21,3.27,1.81,3.3,3.58v.39h0v9.83h-7.46Z"/><path d="M142.12,5.3h2.43c2.93,0,5.31-2.38,5.31-5.3h-13.04c0,2.93,2.38,5.3,5.3,5.3Z"/><path d="M35.75,41.06h-2.24l-3.67,3.94v-3.94h-1.79v8.59h1.79v-2.33l1.43-1.52,2.68,3.85h2.06l-3.58-5.1,3.31-3.49Z"/><path d="M43.09,45.08c.2-.08.38-.21.54-.38.36-.36.54-.8.54-1.32,0-.64-.26-1.19-.79-1.65-.52-.45-1.22-.68-2.08-.68h-4.03v8.59h4.21c.91,0,1.64-.24,2.2-.73.56-.49.84-1.08.84-1.77,0-.63-.24-1.17-.72-1.63-.21-.18-.45-.32-.72-.43h0ZM39.06,42.67h2.15c.72,0,1.07.3,1.07.89s-.36.89-1.07.89h-2.15v-1.79ZM42.31,47.74c-.22.2-.53.29-.92.29h-2.33v-2.15h2.33c.39,0,.7.1.92.29.22.2.33.46.33.78s-.11.58-.33.78h0Z"/><path d="M49.71,40.88c-.94,0-1.79.27-2.54.81-.33.23-.62.49-.86.81l1.16,1.16c.2-.24.4-.43.61-.57.56-.39,1.1-.59,1.63-.59s.95.15,1.29.46c.33.3.5.69.5,1.15l-3.13.54c-.78.13-1.39.44-1.83.91-.45.48-.67,1.07-.67,1.77s.27,1.28.81,1.77c.54.49,1.22.73,2.06.73.75,0,1.45-.24,2.09-.72.29-.23.51-.47.68-.72v1.25h1.79v-5.46c0-.95-.33-1.74-.99-2.37-.66-.63-1.52-.94-2.59-.94h0ZM51.5,45.8c0,.72-.23,1.31-.7,1.79-.47.48-1.04.72-1.72.72-.44,0-.79-.11-1.05-.34-.26-.23-.39-.5-.39-.82,0-.62.45-1.01,1.34-1.16l2.51-.45v.27h0Z"/><path d="M60.53,40.88c-.86,0-1.61.24-2.26.72-.3.21-.53.45-.7.72v-1.25h-1.79v12.35h1.79v-5.01c.17.25.4.49.7.72.64.48,1.39.72,2.26.72,1.1,0,2.04-.43,2.84-1.28.79-.85,1.19-1.92,1.19-3.19s-.4-2.34-1.19-3.19c-.79-.85-1.74-1.28-2.84-1.28ZM62.02,47.34c-.5.52-1.12.79-1.84.79s-1.34-.26-1.84-.79-.75-1.19-.75-1.99.25-1.46.75-1.99c.5-.52,1.11-.79,1.84-.79s1.34.26,1.84.79c.5.52.75,1.19.75,1.99s-.25,1.46-.75,1.99Z"/><path d="M65.45,42.76h2.95v6.89h1.79v-6.89h2.95v-1.7h-7.69v1.7Z"/><path d="M77.8,40.88c-.94,0-1.79.27-2.54.81-.33.23-.62.49-.86.81l1.16,1.16c.2-.24.41-.43.61-.57.56-.39,1.1-.59,1.63-.59s.95.15,1.29.46c.33.3.5.69.5,1.15l-3.13.54c-.78.13-1.39.44-1.83.91-.45.48-.67,1.07-.67,1.77s.27,1.28.81,1.77c.54.49,1.22.73,2.06.73.75,0,1.45-.24,2.09-.72.29-.23.51-.47.68-.72v1.25h1.79v-5.46c0-.95-.33-1.74-.99-2.37-.66-.63-1.53-.94-2.59-.94h0ZM79.59,45.8c0,.72-.23,1.31-.7,1.79-.46.48-1.04.72-1.72.72-.44,0-.79-.11-1.05-.34-.26-.23-.39-.5-.39-.82,0-.62.45-1.01,1.34-1.16l2.51-.45v.27h0Z"/><path d="M84.78,43.56c0,1.23-.07,2.18-.21,2.86-.14.68-.32,1.12-.53,1.32-.21.2-.5.29-.87.29-.11,0-.25-.01-.41-.04l-.21-.05v1.7c.12.05.22.08.3.09.24.06.49.09.77.09.45,0,.85-.1,1.19-.29.34-.19.65-.51.92-.96.28-.45.48-1.09.63-1.93.14-.84.21-1.87.21-3.09v-.81h3.04v6.89h1.79v-8.59h-6.62v2.51h0Z"/><path d="M100.61,47.41l-2.42-6.35h-1.97l3.49,8.59-.36.89c-.31.78-.82,1.16-1.52,1.16-.29,0-.54-.04-.77-.13-.15-.07-.26-.12-.3-.14v1.7l.38.14c.27.08.6.13.97.13,1.36,0,2.4-.92,3.13-2.77l3.76-9.57h-1.97l-2.42,6.35h0Z"/><path d="M113.76,40.88c-1.25,0-2.31.43-3.17,1.3-.86.86-1.3,1.92-1.3,3.18s.43,2.31,1.3,3.18c.86.86,1.92,1.3,3.17,1.3s2.31-.43,3.18-1.3c.86-.86,1.3-1.92,1.3-3.18s-.43-2.31-1.3-3.18c-.87-.86-1.93-1.3-3.18-1.3ZM115.68,47.35c-.51.52-1.15.78-1.91.78s-1.4-.26-1.91-.78c-.51-.52-.77-1.18-.77-1.99s.26-1.48.77-1.99c.51-.52,1.15-.78,1.91-.78s1.4.26,1.91.78c.51.52.77,1.18.77,1.99s-.26,1.48-.77,1.99Z"/><path d="M125.07,45.6c-.25-.18-.53-.32-.84-.43.23-.07.46-.2.72-.39.48-.38.72-.88.72-1.49,0-.66-.29-1.22-.88-1.7-.58-.48-1.37-.72-2.34-.72-.85,0-1.65.2-2.42.59-.31.18-.58.38-.8.59l1.16,1.16c.19-.16.38-.27.55-.36.45-.25.96-.38,1.5-.38.44,0,.78.09,1,.28.23.19.34.42.34.71,0,.24-.12.45-.35.63-.23.18-.56.27-.99.27h-1.08v1.61h1.16c.48,0,.85.1,1.12.31.27.21.4.46.4.76,0,.33-.13.61-.4.83-.27.22-.64.33-1.12.33-.59,0-1.15-.18-1.7-.54-.25-.17-.46-.35-.63-.54l-1.16,1.16c.21.27.51.53.88.77.76.5,1.63.75,2.61.75s1.85-.26,2.47-.77c.62-.51.93-1.12.93-1.82,0-.63-.29-1.17-.86-1.63h0Z"/><path d="M131.74,40.88c-1.22,0-2.25.43-3.1,1.3-.85.86-1.28,1.92-1.28,3.18s.43,2.31,1.3,3.18c.86.86,1.92,1.3,3.18,1.3,1.04,0,1.96-.27,2.77-.81.37-.24.67-.51.89-.81l-1.07-1.25c-.19.23-.42.42-.68.59-.57.38-1.18.57-1.83.57-.7,0-1.3-.21-1.79-.62-.49-.41-.79-.92-.89-1.53h6.62l.04-.25c.04-.32.05-.54.05-.64,0-1.22-.4-2.22-1.19-3.01-.79-.79-1.8-1.19-3.02-1.19ZM129.24,44.46c.41-1.31,1.24-1.97,2.51-1.97.62,0,1.13.18,1.52.53.39.35.66.83.81,1.44h-4.83Z"/><path d="M142.66,40.88c-.86,0-1.61.24-2.26.72-.3.21-.53.45-.7.72v-1.25h-1.79v12.35h1.79v-5.01c.17.25.4.49.7.72.65.48,1.4.72,2.26.72,1.1,0,2.04-.43,2.84-1.28.79-.85,1.19-1.92,1.19-3.19s-.4-2.34-1.19-3.19c-.79-.85-1.74-1.28-2.84-1.28ZM144.14,47.34c-.5.52-1.12.79-1.84.79s-1.34-.26-1.84-.79c-.5-.52-.75-1.19-.75-1.99s.25-1.46.75-1.99c.5-.52,1.11-.79,1.84-.79s1.34.26,1.84.79c.5.52.75,1.19.75,1.99s-.25,1.46-.75,1.99Z"/><path d="M151.87,40.88c-.94,0-1.79.27-2.54.81-.33.23-.62.49-.86.81l1.16,1.16c.2-.24.41-.43.61-.57.56-.39,1.1-.59,1.63-.59s.96.15,1.29.46c.33.3.5.69.5,1.15l-3.13.54c-.78.13-1.39.44-1.83.91-.45.48-.67,1.07-.67,1.77s.27,1.28.81,1.77c.54.49,1.22.73,2.06.73.75,0,1.45-.24,2.09-.72.29-.23.51-.47.68-.72v1.25h1.79v-5.46c0-.95-.33-1.74-.99-2.37-.66-.63-1.52-.94-2.59-.94h0ZM153.66,45.8c0,.72-.23,1.31-.7,1.79-.47.48-1.04.72-1.72.72-.44,0-.79-.11-1.05-.34-.26-.23-.38-.5-.38-.82,0-.62.45-1.01,1.34-1.16l2.51-.45v.27h0Z"/></svg>