<?xml version="1.0" encoding="UTF-8"?><svg id="Layer_1" xmlns="http://www.w3.org/2000/svg" viewBox="0 0 155 24.45"><defs><style>.cls-1{fill:#eaff50;}</style></defs><path class="cls-1" d="M95.52,0c-4.01,0-7.26,3.33-7.26,7.44v9.57c0,1.18-.93,2.14-2.09,2.14s-2.09-.96-2.09-2.14V0h-5.17v17.01c0,4.11,3.25,7.44,7.26,7.44s7.08-3.15,7.25-7.11h0V7.44c0-1.18.93-2.14,2.09-2.14s2.09.96,2.09,2.14v17.01h5.17V7.44c0-4.11-3.25-7.44-7.26-7.44Z"/><path class="cls-1" d="M43.78,0c-6.61,0-11.99,5.45-11.99,12.16s5.38,12.29,11.99,12.29,11.86-5.51,11.86-12.29S50.32,0,43.78,0ZM43.7,19.12c-3.65,0-6.74-3.16-6.74-6.9s3.09-6.93,6.74-6.93c1.79,0,3.48.73,4.77,2.05,1.29,1.32,2,3.05,2,4.89,0,3.74-3.1,6.9-6.77,6.9h0Z"/><path class="cls-1" d="M123.71,4.04c-1.21-2.57-3.74-4.04-6.93-4.04h-9.98v24.45h9.98c3.21,0,5.74-1.48,6.95-4.05,1.18-2.51.85-5.64-.81-7.77l-.26-.33.26-.34c1.68-2.18,2-5.37.79-7.92h0ZM118.58,18.54c-.46.4-1.1.62-1.84.62h-4.75v-4.28h4.76c1.66,0,2.52,1.14,2.52,2.18,0,.56-.25,1.1-.68,1.48ZM118.59,9c-.46.43-1.09.58-1.84.58h-4.77v-4.29h4.75c1.66,0,2.53,1.1,2.53,2.18,0,.58-.25,1.13-.67,1.53Z"/><path class="cls-1" d="M56.15,4.89h6.82v19.56h5.11V4.89h6.82V0h-18.75v4.89Z"/><path class="cls-1" d="M144.61,10.34c-1.61-1.54-3.7-2.31-6.26-2.31h-4.68V0h-5.21v18.2c0,3.45,2.78,6.25,6.21,6.25h3.68c2.57,0,4.66-.77,6.26-2.31,1.61-1.54,2.41-3.5,2.41-5.9s-.8-4.37-2.41-5.9h0ZM140.68,18.63c-.64.62-1.48.92-2.52.92h-4.51v-6.63h4.51c1.04,0,1.88.31,2.52.93.64.62.95,1.41.95,2.39s-.32,1.78-.95,2.39h0Z"/><path class="cls-1" d="M155,0h-5.21v24.45h5.21V0Z"/><path class="cls-1" d="M23.6,0c-3.74,0-7.08,1.82-9.25,4.63C12.18,1.82,8.84,0,5.09,0H0v24.45h5.09V5.29c1.75.03,3.41.75,4.67,2.04,1.29,1.32,2,3.05,2,4.89v2.67h5.18v-2.67c0-1.83.71-3.57,2-4.89,1.26-1.29,2.92-2.02,4.67-2.04v19.15h5.09V0h-5.09Z"/></svg>