<?xml version="1.0" encoding="UTF-8"?>
<svg id="Layer_1" data-name="Layer 1" xmlns="http://www.w3.org/2000/svg" version="1.1" viewBox="0 0 428.6 94.9">
  <defs>
    <style>
      .cls-1 {
        fill: #fff;
        stroke-width: 0px;
      }
    </style>
  </defs>
  <path class="cls-1" d="M216.7,66.6c-3.7-3.6-5.6-8.1-5.6-13.4s1.9-9.9,5.6-13.4c3.7-3.6,8.5-5.4,14.3-5.4s11.4,2.3,15.1,7c1.6,2.1,2.8,4.5,3.5,7h-9.7c-.5-1-1.1-1.9-1.9-2.6-1.8-1.8-4.1-2.7-7-2.7s-5.3.9-7.2,2.8c-1.8,1.9-2.7,4.3-2.7,7.4s.9,5.5,2.7,7.4c1.8,1.9,4.2,2.8,7.2,2.8s5.7-1,7.4-3c.8-.9,1.4-1.9,1.7-3h9.7c-.7,2.7-1.9,5.2-3.6,7.4-3.6,4.9-8.7,7.4-15.2,7.4s-10.5-1.8-14.3-5.4"/>
  <polygon class="cls-1" points="250.8 44 250.8 35.4 282.5 35.4 282.5 44 271.3 44 271.3 71 261.9 71 261.9 44 250.8 44"/>
  <path class="cls-1" d="M296.8,52.7h7.6c1.8,0,3.1-.4,4-1.2.9-.8,1.3-1.8,1.3-3.2s-.4-2.4-1.3-3.2c-.9-.8-2.2-1.2-4-1.2h-7.6v8.6ZM287.4,71v-35.6h17.3c4.4,0,7.9,1.2,10.6,3.7,2.7,2.5,4.1,5.6,4.1,9.2s-1.4,6.7-4.1,9.2c-2.7,2.5-6.3,3.7-10.6,3.7h-7.9v9.7h-9.4Z"/>
  <path class="cls-1" d="M334.3,45.8c-1.8,1.9-2.7,4.3-2.7,7.4s.9,5.5,2.7,7.4c1.8,1.9,4.2,2.8,7.2,2.8s5.3-.9,7.2-2.8c1.8-1.9,2.7-4.3,2.7-7.4s-.9-5.5-2.7-7.4c-1.8-1.9-4.2-2.8-7.2-2.8s-5.3.9-7.2,2.8M327.3,66.5c-3.7-3.7-5.6-8.1-5.6-13.3s1.9-9.6,5.6-13.3c3.7-3.7,8.5-5.5,14.2-5.5s10.5,1.8,14.2,5.5c3.7,3.7,5.6,8.1,5.6,13.3s-1.9,9.6-5.6,13.3c-3.7,3.7-8.5,5.5-14.2,5.5s-10.5-1.8-14.2-5.5"/>
  <polygon class="cls-1" points="365.4 71 365.4 35.4 374.8 35.4 374.8 52.9 374 57.5 374.5 57.5 387.5 35.4 398.4 35.4 398.4 71 389 71 389 53.4 389.8 48.9 389.3 48.9 376.3 71 365.4 71"/>
  <polygon class="cls-1" points="31.5 71 31.5 35.4 40.9 35.4 40.9 52.9 40.2 57.5 40.7 57.5 53.6 35.4 64.6 35.4 64.6 71 55.2 71 55.2 53.4 55.9 48.9 55.4 48.9 42.5 71 31.5 71"/>
  <polygon class="cls-1" points="72 71 72 35.4 81.4 35.4 81.4 48.6 95.1 48.6 95.1 35.4 104.5 35.4 104.5 71 95.1 71 95.1 57.2 81.4 57.2 81.4 71 72 71"/>
  <polygon class="cls-1" points="108.3 44 108.3 35.4 140.1 35.4 140.1 44 128.9 44 128.9 71 119.5 71 119.5 44 108.3 44"/>
  <polygon class="cls-1" points="144.2 71 144.2 35.4 171.6 35.4 171.6 44 153.6 44 153.6 49.4 168.1 49.4 168.1 57 153.6 57 153.6 62.3 171.6 62.3 171.6 71 144.2 71"/>
  <path class="cls-1" d="M186.2,52.7h7.6c1.8,0,3.1-.4,4-1.2.9-.8,1.3-1.8,1.3-3.2s-.4-2.4-1.3-3.2c-.9-.8-2.2-1.2-4-1.2h-7.6v8.6ZM176.8,71v-35.6h17.3c4.4,0,7.9,1.2,10.6,3.7,2.7,2.5,4.1,5.6,4.1,9.2s-1.4,6.7-4.1,9.2c-2.7,2.5-6.3,3.7-10.6,3.7h-7.9v9.7h-9.4Z"/>
  <path class="cls-1" d="M390,12.3c-.2,2.2-.9,4-2.2,5.4-1.5,1.7-3.5,2.6-6,2.6s-4.4-.9-6-2.6c-1.3-1.4-2-3.2-2.2-5.4h-8.2c.3,4.4,1.9,8,4.8,11,3.2,3.3,7.1,4.9,11.6,4.9s8.4-1.6,11.6-4.9c2.9-3,4.5-6.6,4.8-11h-8.2Z"/>
</svg>