<?xml version="1.0" encoding="UTF-8"?><svg id="Layer_1" xmlns="http://www.w3.org/2000/svg" xmlns:xlink="http://www.w3.org/1999/xlink" viewBox="0 0 919.43 198.73"><defs><style>.cls-1{fill:none;}.cls-2{fill:#fff;}.cls-3{fill:#eaff50;}.cls-4{clip-path:url(#clippath);}</style><clipPath id="clippath"><rect class="cls-1" x="526.83" y="75.37" width="254.52" height="26.27"/></clipPath></defs><path class="cls-3" d="M25.6,0h868.23c14.13,0,25.6,11.47,25.6,25.6v173.12H0V25.6C0,11.47,11.47,0,25.6,0Z"/><path d="M527.48,58.56h317.43c18.66,0,33.78,13.34,33.78,29.8h0c0,16.46-15.12,29.8-33.78,29.8h-317.43c-18.66,0-33.78-13.34-33.78-29.8h0c0-16.46,15.12-29.8,33.78-29.8Z"/><g class="cls-4"><path class="cls-3" d="M710.82,75.43c-.09,0-.17,0-.26,0h-7.56c-.09,0-.17,0-.26,0-5.74.17-10.34,4.4-10.34,9.61s4.79,9.62,10.7,9.62h.54v6.79h6.28v-6.79h.54c5.91,0,10.7-4.31,10.7-9.62s-4.59-9.44-10.34-9.61ZM703.64,89.02h-.67c-2.46-.04-4.29-1.83-4.28-4.03,0-2,2.02-3.89,4.27-3.91h.69v7.95ZM710.59,89.02h-.67v-7.95h.69c2.24.03,4.26,1.91,4.27,3.91,0,2.21-1.82,4-4.28,4.03Z"/><path class="cls-3" d="M562.58,101.45h12.03v-5.63h-11.97c-2,0-3.05-1.17-3.05-2.32,0-.62.3-1.21.81-1.63.56-.45,1.31-.62,2.21-.62h8.24v-5.65h-8.22c-2,0-3.04-1.21-3.04-2.32,0-.6.3-1.17.83-1.58.56-.43,1.32-.65,2.22-.65l11.97.02v-5.64h-12.03c-3.87,0-6.92,1.57-8.38,4.31-1.42,2.68-1.03,6,.98,8.27l.31.36-.31.36c-2.02,2.33-2.4,5.71-.95,8.43,1.46,2.73,4.51,4.3,8.35,4.3"/><path class="cls-3" d="M594.12,75.42c-7.97,0-14.46,5.81-14.46,12.94s6.49,13.09,14.46,13.09,14.3-5.87,14.3-13.09-6.42-12.94-14.3-12.94ZM594.02,95.78c-4.4,0-8.12-3.36-8.12-7.35s3.72-7.38,8.12-7.38c2.16,0,4.2.77,5.75,2.18,1.55,1.4,2.41,3.25,2.41,5.2,0,3.98-3.74,7.35-8.16,7.35"/><path class="cls-3" d="M623.4,81.07h11.33v-5.65h-11.37c-5.27,0-9.89,3.97-9.89,8.5v17.52h6.24v-17.49c0-1.75,1.45-2.89,3.69-2.89Z"/><path class="cls-3" d="M650.18,75.42h-10.4v26.03h6.26v-6.78h4.16c7.46,0,10.85-4.97,10.85-9.61s-3.39-9.63-10.86-9.63ZM654.83,85.07c0,2.18-1.96,3.96-4.38,3.96h-4.41v-7.96h4.43c.12,0,.25.01.37.01,2.24.18,4,1.87,4,3.94v.04h0Z"/><path class="cls-3" d="M776.24,75.42h-5.63c-5.85,0-10.6,4.29-10.6,9.6,0,3.12,1.64,5.89,4.18,7.65-.14.34-4.18,8.78-4.18,8.78h6.23l3.24-6.79h5.55v6.79h6.23v-26.03h-5.03ZM775.04,89.03h-4.4c-2.41,0-4.36-1.77-4.36-3.96v-.04c0-2.18,1.95-3.96,4.36-3.96h4.4v7.96Z"/><path class="cls-3" d="M536.97,81.07h11.33v-5.65h-11.37c-5.27,0-9.89,3.97-9.89,8.5v17.52h6.24v-17.49c0-1.75,1.45-2.89,3.69-2.89Z"/><path class="cls-3" d="M687.33,88.89v-3.94c0-.08,0-.16,0-.23-.19-5.16-4.86-9.3-10.61-9.3s-10.42,4.13-10.61,9.3c0,.08,0,.15,0,.23v3.94s-.01.02-.02.03v12.53h6.24v-6.78h8.77v6.78h6.24v-12.53s-.01-.02-.02-.03ZM681.1,89.02h-8.78v-3.69h0v-.42c.03-1.88,1.85-3.59,3.88-3.81.05,0,.1-.01.15-.01.02,0,.03,0,.05,0,.08,0,.17,0,.25,0h.09c.08,0,.17,0,.25,0,.02,0,.03,0,.05,0,.05,0,.1,0,.16.01,2.04.22,3.85,1.93,3.88,3.81v.42h0v3.69h0Z"/><path class="cls-3" d="M746.22,75.42c-4.83,0-8.75,3.54-8.75,7.92v10.19c0,1.26-1.12,2.27-2.51,2.27s-2.51-1.02-2.51-2.27v-18.11h-6.24v18.11c0,4.37,3.92,7.92,8.75,7.92s8.54-3.36,8.74-7.57h0v-10.54c0-1.26,1.13-2.27,2.51-2.27s2.51,1.02,2.51,2.27v18.11h6.24v-18.11c0-4.37-3.92-7.92-8.75-7.92Z"/></g><path class="cls-2" d="M847.22,75.42c-.09,0-.17,0-.26,0h-7.52c-.09,0-.17,0-.26,0-5.71.17-10.29,4.44-10.29,9.69s4.77,9.69,10.65,9.69h.54v6.84h6.25v-6.84h.54c5.88,0,10.65-4.34,10.65-9.69s-4.57-9.51-10.29-9.69ZM840.07,89.12h-.67c-2.45-.04-4.27-1.84-4.26-4.07,0-2.02,2.01-3.92,4.25-3.95h.68v8.01ZM846.99,89.12h-.67v-8.01h.68c2.23.03,4.24,1.93,4.25,3.95,0,2.22-1.82,4.03-4.26,4.07Z"/><path class="cls-2" d="M814.34,75.41h-10.5v26.23h6.32v-6.84h4.2c7.53,0,10.95-5.01,10.95-9.69s-3.43-9.7-10.96-9.7ZM819.04,85.14c0,2.2-1.98,3.99-4.43,3.99h-4.46v-8.02h4.47c.12,0,.25.01.37.01,2.26.18,4.04,1.89,4.04,3.97v.04h0Z"/><ellipse class="cls-2" cx="791.92" cy="97.89" rx="4.29" ry="3.79"/><path d="M37.78,76.86v-28h22.6v28h-4.4v-23.8h-13.8v23.8h-4.4Z"/><path d="M65.98,84.66v-3.8c.11.05.33.16.68.32.51.19,1.08.28,1.72.28,1.57,0,2.71-.87,3.4-2.6l.8-2-7.8-19.2h4.4l5.4,14.2,5.4-14.2h4.4l-8.4,21.4c-1.63,4.13-3.96,6.2-7,6.2-.83,0-1.55-.09-2.16-.28l-.84-.32Z"/><path d="M92.18,76.86v-15.4h-6.6v-3.8h17.2v3.8h-6.6v15.4h-4Z"/><path d="M120.58,70.86l2.4,2.8c-.51.67-1.17,1.27-2,1.8-1.81,1.2-3.88,1.8-6.2,1.8-2.8,0-5.17-.97-7.1-2.9-1.93-1.93-2.9-4.3-2.9-7.1s.95-5.17,2.86-7.1c1.91-1.93,4.22-2.9,6.94-2.9s4.97.89,6.74,2.66c1.77,1.77,2.66,4.02,2.66,6.74,0,.24-.04.72-.12,1.44l-.08.56h-14.8c.24,1.36.91,2.5,2,3.42,1.09.92,2.43,1.38,4,1.38,1.44,0,2.8-.43,4.08-1.28.59-.37,1.09-.81,1.52-1.32ZM108.98,65.26h10.8c-.32-1.36-.92-2.43-1.8-3.22-.88-.79-2.01-1.18-3.4-1.18-2.83,0-4.69,1.47-5.6,4.4Z"/><path d="M128.38,76.86v-19.2h9c1.92,0,3.47.51,4.64,1.52,1.17,1.01,1.76,2.24,1.76,3.68,0,1.17-.4,2.16-1.2,2.96-.35.37-.75.65-1.2.84.59.24,1.12.56,1.6.96,1.07,1.01,1.6,2.23,1.6,3.64,0,1.55-.63,2.87-1.88,3.96-1.25,1.09-2.89,1.64-4.92,1.64h-9.4ZM132.38,65.26h4.8c1.6,0,2.4-.67,2.4-2s-.8-2-2.4-2h-4.8v4ZM132.38,73.26h5.2c.88,0,1.57-.22,2.06-.66.49-.44.74-1.02.74-1.74s-.25-1.3-.74-1.74c-.49-.44-1.18-.66-2.06-.66h-5.2v4.8Z"/><path d="M150.68,74.36c-1.93-1.93-2.9-4.3-2.9-7.1s.97-5.17,2.9-7.1c1.93-1.93,4.3-2.9,7.1-2.9s5.17.97,7.1,2.9c1.93,1.93,2.9,4.3,2.9,7.1s-.97,5.17-2.9,7.1c-1.93,1.93-4.3,2.9-7.1,2.9s-5.17-.97-7.1-2.9ZM153.5,71.72c1.15,1.16,2.57,1.74,4.28,1.74s3.13-.58,4.28-1.74c1.15-1.16,1.72-2.65,1.72-4.46s-.57-3.3-1.72-4.46c-1.15-1.16-2.57-1.74-4.28-1.74s-3.13.58-4.28,1.74c-1.15,1.16-1.72,2.65-1.72,4.46s.57,3.3,1.72,4.46Z"/><path d="M169.38,81.66v-8.6h1.4c.56-.59,1.09-1.37,1.6-2.36,1.07-2.13,1.6-4.61,1.6-7.44v-5.6h14v15.4h2.8v8.6h-4v-4.8h-13.4v4.8h-4ZM174.98,73.06h9v-11.6h-6v1.8c0,2.83-.51,5.31-1.52,7.44-.43.88-.92,1.67-1.48,2.36Z"/><path d="M194.38,76.86v-19.2h4v12.8l10-12.8h3.6v19.2h-4v-12.8l-10,12.8h-3.6Z"/><path d="M222.18,76.86v-15.4h-6.6v-3.8h17.2v3.8h-6.6v15.4h-4Z"/><path d="M250.58,70.86l2.4,2.8c-.51.67-1.17,1.27-2,1.8-1.81,1.2-3.88,1.8-6.2,1.8-2.8,0-5.17-.97-7.1-2.9-1.93-1.93-2.9-4.3-2.9-7.1s.95-5.17,2.86-7.1c1.91-1.93,4.22-2.9,6.94-2.9s4.97.89,6.74,2.66c1.77,1.77,2.66,4.02,2.66,6.74,0,.24-.04.72-.12,1.44l-.08.56h-14.8c.24,1.36.91,2.5,2,3.42,1.09.92,2.43,1.38,4,1.38,1.44,0,2.8-.43,4.08-1.28.59-.37,1.09-.81,1.52-1.32ZM238.98,65.26h10.8c-.32-1.36-.92-2.43-1.8-3.22-.88-.79-2.01-1.18-3.4-1.18-2.83,0-4.69,1.47-5.6,4.4Z"/><path d="M255.38,76.86v-3.8l.48.12c.37.05.68.08.92.08.83,0,1.47-.22,1.94-.66.47-.44.86-1.42,1.18-2.94.32-1.52.48-3.65.48-6.4v-5.6h14.8v19.2h-4v-15.4h-6.8v1.8c0,2.72-.16,5.02-.48,6.9-.32,1.88-.79,3.32-1.4,4.32-.61,1-1.3,1.71-2.06,2.14-.76.43-1.65.64-2.66.64-.61,0-1.19-.07-1.72-.2-.19-.03-.41-.09-.68-.2Z"/><path d="M280.78,76.86v-19.2h4v6h4.4c2.27,0,4.07.61,5.4,1.84,1.33,1.23,2,2.81,2,4.76s-.67,3.53-2,4.76c-1.33,1.23-3.13,1.84-5.4,1.84h-8.4ZM284.78,73.26h4.4c1.09,0,1.93-.27,2.52-.8.59-.53.88-1.27.88-2.2s-.29-1.67-.88-2.2c-.59-.53-1.43-.8-2.52-.8h-4.4v6Z"/><path d="M36.58,124.86v-19.2h17.4v19.2h-4v-15.4h-9.4v15.4h-4Z"/><path d="M61.28,122.36c-1.93-1.93-2.9-4.3-2.9-7.1s.97-5.17,2.9-7.1c1.93-1.93,4.3-2.9,7.1-2.9s5.17.97,7.1,2.9c1.93,1.93,2.9,4.3,2.9,7.1s-.97,5.17-2.9,7.1c-1.93,1.93-4.3,2.9-7.1,2.9s-5.17-.97-7.1-2.9ZM64.1,119.72c1.15,1.16,2.57,1.74,4.28,1.74s3.13-.58,4.28-1.74c1.15-1.16,1.72-2.65,1.72-4.46s-.57-3.3-1.72-4.46c-1.15-1.16-2.57-1.74-4.28-1.74s-3.13.58-4.28,1.74c-1.15,1.16-1.72,2.65-1.72,4.46s.57,3.3,1.72,4.46Z"/><path d="M91.18,124.86v-19.2h4v8.8l8.2-8.8h5l-7.4,7.8,8,11.4h-4.6l-6-8.6-3.2,3.4v5.2h-4Z"/><path d="M111.78,124.86v-19.2h9c1.92,0,3.47.51,4.64,1.52,1.17,1.01,1.76,2.24,1.76,3.68,0,1.17-.4,2.16-1.2,2.96-.35.37-.75.65-1.2.84.59.24,1.12.56,1.6.96,1.07,1.01,1.6,2.23,1.6,3.64,0,1.55-.63,2.87-1.88,3.96-1.25,1.09-2.89,1.64-4.92,1.64h-9.4ZM115.78,113.26h4.8c1.6,0,2.4-.67,2.4-2s-.8-2-2.4-2h-4.8v4ZM115.78,121.26h5.2c.88,0,1.57-.22,2.06-.66.49-.44.74-1.02.74-1.74s-.25-1.3-.74-1.74c-.49-.44-1.18-.66-2.06-.66h-5.2v4.8Z"/><path d="M143.58,124.86v-2.8c-.37.56-.88,1.09-1.52,1.6-1.44,1.07-3,1.6-4.68,1.6-1.87,0-3.4-.55-4.6-1.64-1.2-1.09-1.8-2.41-1.8-3.96s.5-2.89,1.5-3.96c1-1.07,2.37-1.75,4.1-2.04l7-1.2c0-1.04-.37-1.9-1.12-2.58-.75-.68-1.71-1.02-2.88-1.02s-2.39.44-3.64,1.32c-.45.32-.91.75-1.36,1.28l-2.6-2.6c.53-.69,1.17-1.29,1.92-1.8,1.68-1.2,3.57-1.8,5.68-1.8,2.37,0,4.3.7,5.78,2.1s2.22,3.17,2.22,5.3v12.2h-4ZM143.58,116.26v-.6l-5.6,1c-2,.35-3,1.21-3,2.6,0,.72.29,1.33.86,1.84.57.51,1.35.76,2.34.76,1.52,0,2.8-.53,3.84-1.6s1.56-2.4,1.56-4Z"/><path d="M153.18,133.26v-27.6h4v2.8c.37-.59.89-1.12,1.56-1.6,1.44-1.07,3.12-1.6,5.04-1.6,2.45,0,4.57.95,6.34,2.86,1.77,1.91,2.66,4.29,2.66,7.14s-.89,5.23-2.66,7.14c-1.77,1.91-3.89,2.86-6.34,2.86-1.92,0-3.6-.53-5.04-1.6-.67-.51-1.19-1.04-1.56-1.6v11.2h-4ZM158.86,119.7c1.12,1.17,2.49,1.76,4.12,1.76s3-.59,4.12-1.76c1.12-1.17,1.68-2.65,1.68-4.44s-.56-3.27-1.68-4.44c-1.12-1.17-2.49-1.76-4.12-1.76s-3,.59-4.12,1.76c-1.12,1.17-1.68,2.65-1.68,4.44s.56,3.27,1.68,4.44Z"/><path d="M181.38,124.86v-15.4h-6.6v-3.8h17.2v3.8h-6.6v15.4h-4Z"/><path d="M195.58,124.86v-19.2h4v12.8l10-12.8h3.6v19.2h-4v-12.8l-10,12.8h-3.6Z"/><path d="M218.78,133.26v-27.6h4v2.8c.37-.59.89-1.12,1.56-1.6,1.44-1.07,3.12-1.6,5.04-1.6,2.45,0,4.57.95,6.34,2.86,1.77,1.91,2.66,4.29,2.66,7.14s-.89,5.23-2.66,7.14c-1.77,1.91-3.89,2.86-6.34,2.86-1.92,0-3.6-.53-5.04-1.6-.67-.51-1.19-1.04-1.56-1.6v11.2h-4ZM224.46,119.7c1.12,1.17,2.49,1.76,4.12,1.76s3-.59,4.12-1.76c1.12-1.17,1.68-2.65,1.68-4.44s-.56-3.27-1.68-4.44c-1.12-1.17-2.49-1.76-4.12-1.76s-3,.59-4.12,1.76c-1.12,1.17-1.68,2.65-1.68,4.44s.56,3.27,1.68,4.44Z"/><path d="M253.98,124.86v-2.8c-.37.56-.88,1.09-1.52,1.6-1.44,1.07-3,1.6-4.68,1.6-1.87,0-3.4-.55-4.6-1.64-1.2-1.09-1.8-2.41-1.8-3.96s.5-2.89,1.5-3.96c1-1.07,2.37-1.75,4.1-2.04l7-1.2c0-1.04-.37-1.9-1.12-2.58-.75-.68-1.71-1.02-2.88-1.02s-2.39.44-3.64,1.32c-.45.32-.91.75-1.36,1.28l-2.6-2.6c.53-.69,1.17-1.29,1.92-1.8,1.68-1.2,3.57-1.8,5.68-1.8,2.37,0,4.3.7,5.78,2.1s2.22,3.17,2.22,5.3v12.2h-4ZM253.98,116.26v-.6l-5.6,1c-2,.35-3,1.21-3,2.6,0,.72.29,1.33.86,1.84.57.51,1.35.76,2.34.76,1.52,0,2.8-.53,3.84-1.6s1.56-2.4,1.56-4Z"/><path d="M263.58,124.86v-19.2h3.4l6.8,8.4,6.8-8.4h3.4v19.2h-4v-12.8l-6.2,7.6-6.2-7.6v12.8h-4Z"/><path d="M303.18,124.86v-23.8h-8.4v-4.2h21.2v4.2h-8.4v23.8h-4.4Z"/><path d="M317.18,124.86v-19.2h4v7.6h3.8c.4-2.37,1.45-4.3,3.14-5.78,1.69-1.48,3.85-2.22,6.46-2.22,2.8,0,5.13.95,7,2.84,1.87,1.89,2.8,4.28,2.8,7.16s-.93,5.27-2.8,7.16c-1.87,1.89-4.2,2.84-7,2.84-2.64,0-4.82-.78-6.54-2.34-1.72-1.56-2.74-3.58-3.06-6.06h-3.8v8h-4ZM330.38,119.78c1.07,1.12,2.47,1.68,4.2,1.68s3.13-.56,4.2-1.68c1.07-1.12,1.6-2.63,1.6-4.52s-.53-3.4-1.6-4.52c-1.07-1.12-2.47-1.68-4.2-1.68s-3.13.56-4.2,1.68c-1.07,1.12-1.6,2.63-1.6,4.52s.53,3.4,1.6,4.52Z"/><path d="M348.78,124.86v-19.2h3.4l6.8,8.4,6.8-8.4h3.4v19.2h-4v-12.8l-6.2,7.6-6.2-7.6v12.8h-4Z"/><path d="M389.38,118.86l2.4,2.8c-.51.67-1.17,1.27-2,1.8-1.81,1.2-3.88,1.8-6.2,1.8-2.8,0-5.17-.97-7.1-2.9-1.93-1.93-2.9-4.3-2.9-7.1s.95-5.17,2.86-7.1c1.91-1.93,4.22-2.9,6.94-2.9s4.97.89,6.74,2.66c1.77,1.77,2.66,4.02,2.66,6.74,0,.24-.04.72-.12,1.44l-.08.56h-14.8c.24,1.36.91,2.5,2,3.42,1.09.92,2.43,1.38,4,1.38,1.44,0,2.8-.43,4.08-1.28.59-.37,1.09-.81,1.52-1.32ZM377.78,113.26h10.8c-.32-1.36-.92-2.43-1.8-3.22-.88-.79-2.01-1.18-3.4-1.18-2.83,0-4.69,1.47-5.6,4.4Z"/><path d="M397.18,124.86v-19.2h4v7.6h9.4v-7.6h4v19.2h-4v-8h-9.4v8h-4Z"/><path d="M420.18,124.86v-19.2h4v12.8l10-12.8h3.6v19.2h-4v-12.8l-10,12.8h-3.6Z"/></svg>