<?xml version="1.0" encoding="UTF-8"?>
<svg id="Layer_1" xmlns="http://www.w3.org/2000/svg" version="1.1" viewBox="0 0 636 174">
  <!-- Generator: Adobe Illustrator 30.4.0, SVG Export Plug-In . SVG Version: 2.1.4 Build 226)  -->
  <defs>
    <style>
      .st0 {
        fill: #141414;
        fill-rule: evenodd;
      }

      .st1 {
        fill: #fff;
      }
    </style>
  </defs>
  <path class="st0" d="M636,95.4347721c0,7.6970153-6.2357154,13.9366565-13.9273435,13.9366565h-143.2164459c-7.6940921,0-13.9298454,6.2396412-13.9298454,13.9369031v36.7550213c0,7.6970058-6.2357533,13.936647-13.9298454,13.936647H14.2786649c-7.693097,0-13.9293621-6.2396412-13.9293621-13.936647v-50.5171761c0-.0964439-.0782573-.1747483-.1746514-.1747483s-.1746514-.0783044-.1746514-.1747483V13.9369031C0,6.2396389,6.2362651,0,13.9291157,0h608.1435409c7.691628,0,13.9273435,6.2396389,13.9273435,13.9369031v81.497869Z"/>
  <path class="st1" d="M61.1065398,78.3164043c-5.9855859,0-11.4116997-1.371114-16.2785782-4.1138541-4.8668786-2.7424935-8.6987707-6.4365117-11.4956764-11.0820638-2.7410049-4.7014785-4.1116282-9.8508793-4.1116282-15.447719,0-5.5970815,1.3706233-10.7464871,4.1116282-15.4479656,2.7969057-4.7014832,6.6287978-8.3955013,11.4956764-11.0820638,4.8668786-2.7427353,10.2929924-4.1138541,16.2785782-4.1138541,5.6499538,0,10.6008091,1.1193177,14.8520542,3.3581996,4.2515104,2.2388819,7.691865,4.8973533,10.3210731,7.9756606l-8.4749307,7.5560759c-2.1817745-2.1827043-4.5871425-3.9458239-7.2163506-5.2891028-2.5733121-1.3992099-5.733921-2.0989382-9.4818459-2.0989382-3.5240754,0-6.7686611.8394254-9.7335108,2.5187741-2.9089442,1.6791022-5.2025107,4.001755-6.880709,6.968205-1.6781889,2.9105237-2.5171601,6.1287748-2.5171601,9.6550093,0,3.5259832.8389712,6.744239,2.5171601,9.6547675,1.6781984,2.910519,3.9717649,5.2053272,6.880709,6.8844341,2.9648497,1.6790974,6.2094354,2.5185229,9.7335108,2.5185229,3.8040673,0,7.0205818-.6716371,9.6497899-2.0149207,2.6851041-1.3992099,5.1463682-3.2460957,7.3840387-5.5409039l8.5589074,7.5558246c-2.741256,3.190416-6.2934121,5.9329-10.6567051,8.2277177-4.307397,2.2388819-9.2860771,3.3581948-14.9360309,3.3581948ZM111.9017063,77.0571429h-11.3277324v-30.0560126h-12.8384701v-10.6624744h36.9207054v10.6624744h-12.7545029v30.0560126ZM146.531821,35.4989839c3.4681888,0,6.5450864.7278146,9.2301811,2.1829556,2.7410096,1.3992052,4.8666322,3.3303597,6.377133,5.7929563,1.5102544,2.4066655,2.2655048,5.0653882,2.2655048,7.9756653v25.6065818h-10.7404355v-5.6249261h-.2516743c-1.0071522,1.6229246-2.6013738,3.1061472-4.7828924,4.4494308-2.1817839,1.3435302-4.6711193,2.0151672-7.4680249,2.0151672-2.5733026,0-4.8949498-.5319446-6.9646763-1.5953312-2.0138305-1.0633866-3.6080521-2.490683-4.7829113-4.2816425-1.1746128-1.8471323-1.7621562-3.8061267-1.7621562-5.8769737,0-3.4700569,1.090873-6.3246496,3.2726569-8.5635315,2.1815186-2.2386354,5.286241-3.7499539,9.3139019-4.5334436l12.8384796-2.4347567c-.1120574-1.6231759-.8392177-2.9945459-2.1817839-4.1138636-1.2866513-1.1754905-2.936769-1.7631149-4.9505994-1.7631149-3.4684352,0-6.6290347,1.5953312-9.4820829,4.7854959l-6.4608538-6.2127923c1.789981-2.126778,4.083557-3.9458239,6.8804626-5.4568912,2.8530481-1.5672401,6.0695626-2.3509858,9.649771-2.3509858ZM144.4340233,68.8294252c2.4612641,0,4.5031658-.8675119,6.1254587-2.6025356,1.6782079-1.7350332,2.5174255-4.0020015,2.5174255-6.8004214v-1.3432836l-8.8108187,1.7631196c-1.5661504.279897-2.7969057.8675119-3.6920194,1.7631196-.8948673.8394254-1.3425663,1.7909595-1.3425663,2.8543461,0,1.2873478.447699,2.3507345,1.3425663,3.190416.9510097.7834897,2.237661,1.1752392,3.8599539,1.1752392ZM174.0713179,94.6878175v-58.3491616h11.3279788v5.7929563h.2516554c1.0069247-1.6790974,2.6572888-3.1904112,4.9508648-4.5336901,2.2933106-1.3992099,4.9786707-2.0989382,8.0553029-2.0989382,3.3005007,0,6.3490617.895603,9.1462138,2.686809,2.8528017,1.7909548,5.1185529,4.3094824,6.7954908,7.5558246,1.6794399,3.190416,2.5191503,6.828503,2.5191503,10.9142707s-.8397105,7.7519554-2.5191503,10.9982977c-1.6769379,3.1901599-3.9426891,5.7089388-6.7954908,7.5558246-2.7971521,1.791206-5.8457131,2.6868043-9.1462138,2.6868043-3.0766323,0-5.7619923-.6716371-8.0553029-2.0151672-2.293576-1.3992099-3.9439401-2.9383589-4.9508648-4.6174658h-.2516554v23.4236356h-11.3279788ZM195.4684301,67.4021288c1.7902463,0,3.440364-.4755157,4.9508648-1.4270498,1.5661504-.9515246,2.7969057-2.2388819,3.6920194-3.862053.9510097-1.6231711,1.4265146-3.442217,1.4265146-5.4571377,0-1.9589849-.4755049-3.7499444-1.4265146-5.3731155-.8951137-1.6231711-2.1258689-2.9105237-3.6920194-3.8620578-1.5105008-.9515293-3.1606185-1.4270451-4.9508648-1.4270451-1.789981,0-3.4681699.4755157-5.0345667,1.4270451-1.5102544.9515341-2.7410096,2.2388866-3.6920194,3.8620578-.8951137,1.6231711-1.3425473,3.4141306-1.3425473,5.3731155,0,2.0149207.4474336,3.8339666,1.3425473,5.4571377.9510097,1.6231711,2.181765,2.9105285,3.6920194,3.862053,1.5663968.9515341,3.2445857,1.4270498,5.0345667,1.4270498ZM244.2646832,77.0571429h-11.328718v-30.0560126h-12.8392188v-10.6624744h36.9202126v10.6624744h-12.7522757v30.0560126ZM291.5397453,77.0571429h-11.328718v-40.718487h38.5996525v40.718487h-11.328718v-30.0560126h-15.9422164v30.0560126ZM328.864915,94.6878175v-58.3491616h11.328718v5.7929563h.2509161c1.0086685-1.6790974,2.6582934-3.1904112,4.9513386-4.5336901,2.2930832-1.3992099,4.9787086-2.0989382,8.0568382-2.0989382,3.2992118,0,6.3475454.895603,9.1449629,2.686809,2.8520435,1.7909548,5.1177947,4.3094824,6.7972156,7.5558246,1.6769569,3.190416,2.5166673,6.828503,2.5166673,10.9142707s-.8397105,7.7519554-2.5166673,10.9982977c-1.6794209,3.1901599-3.9451721,5.7089388-6.7972156,7.5558246-2.7974174,1.791206-5.845751,2.6868043-9.1449629,2.6868043-3.0781296,0-5.763755-.6716371-8.0568382-2.0151672-2.2930453-1.3992099-3.9426701-2.9383589-4.9513386-4.6174658h-.2509161v23.4236356h-11.328718ZM350.2627664,67.4021288c1.7912509,0,3.4408758-.4755157,4.9513766-1.4270498,1.5651269-.9515246,2.7973795-2.2388819,3.691754-3.862053.9515025-1.6231711,1.4260407-3.442217,1.4260407-5.4571377,0-1.9589849-.4745382-3.7499444-1.4260407-5.3731155-.8943745-1.6231711-2.1266271-2.9105237-3.691754-3.8620578-1.5105008-.9515293-3.1601257-1.4270451-4.9513766-1.4270451-1.788711,0-3.4681699.4755157-5.0332968,1.4270451-1.5105008.9515341-2.7427534,2.2388866-3.6917919,3.8620578-.8968385,1.6231711-1.3440447,3.4141306-1.3440447,5.3731155,0,2.0149207.4472062,3.8339666,1.3440447,5.4571377.9490385,1.6231711,2.1812911,2.9105285,3.6917919,3.862053,1.5651269.9515341,3.2445857,1.4270498,5.0332968,1.4270498ZM398.7875001,77.8968148c-4.0271681,0-7.7214241-.9515246-11.0778019-2.8545927-3.2992497-1.9030586-5.9277091-4.4777638-7.8854161-7.7238595-1.9030051-3.2463423-2.8545455-6.8004214-2.8545455-10.6624744s.9515404-7.4161274,2.8545455-10.6622184c1.957707-3.2463423,4.5861664-5.7929563,7.8854161-7.6400933,3.3563778-1.9030634,7.0506338-2.8545927,11.0778019-2.8545927,4.0817942,0,7.7760502.9515293,11.0752999,2.8545927,3.3563778,1.8471371,5.9848372,4.3937511,7.8878802,7.6400933,1.9030051,3.246091,2.8520435,6.8001653,2.8520435,10.6622184s-.9490385,7.4161321-2.8520435,10.6624744c-1.903043,3.2460957-4.5315024,5.8208009-7.8878802,7.7238595-3.2992497,1.9030681-6.9935057,2.8545927-11.0752999,2.8545927ZM398.7875001,67.4021288c2.8520435,0,5.2867149-1.0353002,7.2990479-3.1061472,2.014835-2.0710935,3.0210016-4.6177123,3.0210016-7.6400933s-1.0061665-5.5411504-3.0210016-7.5560711c-2.0123331-2.070847-4.4470044-3.1061472-7.2990479-3.1061472-2.8545455,0-5.2867528,1.0353002-7.3015878,3.1061472-1.9576691,2.0149207-2.9365036,4.5336901-2.9365036,7.5560711s.9788345,5.5689998,2.9365036,7.6400933c2.014835,2.070847,4.4470423,3.1061472,7.3015878,3.1061472ZM463.6667805,66.7304917h6.0395012v20.4012546h-11.3262161v-10.0746035h-24.3343929v10.0746035h-11.3287559v-20.4012546h2.9365415c1.5676289-1.4551362,2.9936696-3.9458192,4.2805483-7.4720584,1.2869167-3.5819095,1.957707-7.7238595,2.014835-12.425338l.2509161-10.4944395h31.4670227v30.3918359ZM452.3380625,66.7304917v-20.1492022h-9.7337572v2.2667265c-.054664,4.1978763-.6434583,7.8918944-1.7614169,11.0820544-1.1204606,3.190416-2.3502113,5.4571377-3.691754,6.8004214h15.1869281ZM492.1773977,35.4989839c3.4682078,0,6.5438355.7278146,9.2294608,2.1829556,2.7402515,1.3992052,4.8668786,3.3303597,6.3773794,5.7929563,1.5104629,2.4066655,2.2657133,5.0653882,2.2657133,7.9756653v25.6065818h-10.7423878v-5.6249261h-.2509161c-1.0062044,1.6229246-2.6011653,3.1061472-4.7824185,4.4494308-2.1812911,1.3435302-4.6706264,2.0151672-7.468006,2.0151672-2.5738333,0-4.8942106-.5319446-6.9637096-1.5953312-2.014835-1.0633866-3.6097959-2.490683-4.7848826-4.2816425-1.1726226-1.8471323-1.7614169-3.8061267-1.7614169-5.8769737,0-3.4700569,1.0906266-6.3246496,3.2719177-8.5635315,2.1837552-2.2386354,5.2867149-3.7499539,9.313883-4.5334436l12.8392188-2.4347567c-.1117921-1.6231759-.8397105-2.9945459-2.1812532-4.1138636-1.2869167-1.1754905-2.9365415-1.7631149-4.9513766-1.7631149-3.4681699,0-6.6282955,1.5953312-9.4803391,4.7854959l-6.4618394-6.2127923c1.7887489-2.126778,4.0842962-3.9458239,6.8792117-5.4568912,2.8545455-1.5672401,6.0717992-2.3509858,9.6517612-2.3509858ZM490.0781026,68.8294252c2.4620412,0,4.5041704-.8675119,6.1264632-2.6025356,1.6769569-1.7350332,2.5166673-4.0020015,2.5166673-6.8004214v-1.3432836l-8.8095487,1.7631196c-1.5676668.279897-2.7974174.8675119-3.6917919,1.7631196-.8968385.8394254-1.3440447,1.7909595-1.3440447,2.8543461,0,1.2873478.4472062,2.3507345,1.3440447,3.190416.9490385.7834897,2.2359172,1.1752392,3.8582101,1.1752392ZM526.7002219,77.0571429h-12.8392188l16.3645167-23.9274843-15.5248063-16.7910027h13.6789293l13.0056749,15.1959179v-15.1959179h10.7399237v15.1959179l13.0056749-15.1959179h13.5944692l-15.5248063,16.7910027,16.3620527,23.9274843h-12.7522947l-11.1622619-16.6232143-3.5228339,3.9458192v12.6773951h-10.7399237v-12.6773951l-3.6097959-3.9458192-11.0752999,16.6232143ZM39.2026008,141.6857143h-3.6361186v-22.1494586h-9.3039652v-3.5309519h22.1908871v3.5309519h-9.2508033v22.1494586ZM53.2166789,152.920888v-36.9155842h3.6358769v4.4404796h.0536594c.7130204-1.2841239,1.9070044-2.4253124,3.5824639-3.424068,1.6754595-1.0343141,3.6005936-1.5515896,5.7751655-1.5515896,2.1387957,0,4.1173429.58862,5.9354046,1.765604,1.8535914,1.1414445,3.3330357,2.7285736,4.438077,4.7616338,1.1050508,2.0330697,1.6575762,4.3157027,1.6575762,6.8481455,0,2.5324523-.5525254,4.8150758-1.6575762,6.8481455-1.1050413,2.0330697-2.5844856,3.6380918-4.438077,4.8150663-1.8180617,1.141454-3.7966088,1.711925-5.9354046,1.711925-2.1745718,0-4.099706-.499392-5.7751655-1.4978917-1.6754595-1.0343046-2.8694435-2.1936421-3.5824639-3.4775194h-.0536594v15.6756533h-3.6358769ZM65.8360381,138.6896844c1.5683775,0,3.0299385-.4280476,4.3846639-1.2841239,1.3547254-.8558297,2.4240001-2.0330697,3.2083073-3.5309614.8198464-1.4981382,1.230016-3.1745047,1.230016-5.0290901,0-1.8903903-.4101696-3.5846499-1.230016-5.0825415-.7843072-1.4981382-1.8535819-2.6572292-3.2083073-3.477766-1.3547254-.8558297-2.8162864-1.2838679-4.3846639-1.2838679-1.6399298,0-3.1549038.4280381-4.5451589,1.2838679-1.3547254.8205368-2.4418834,1.9796278-3.2617298,3.477766-.7843072,1.4978917-1.1765935,3.1921512-1.1765935,5.0825415,0,1.8545854.3922863,3.5309519,1.1765935,5.0290901.8198464,1.4978917,1.9070044,2.6751317,3.2617298,3.5309614,1.3902551.8560763,2.9052291,1.2841239,4.5451589,1.2841239ZM95.5530637,142.2206458c-2.3171645,0-4.4559603-.5883735-6.4166241-1.7653669-1.9606638-1.2127795-3.5290509-2.835704-4.705398-4.8687548-1.1765935-2.0330697-1.7646486-4.2799072-1.7646486-6.7410151,0-2.4966473.5704182-4.7616338,1.7109892-6.7947036,1.1408174-2.0330602,2.6736747-3.6380918,4.5985625-4.8150758,1.9251436-1.176984,4.0284096-1.765604,6.3098075-1.765604,2.2458682,0,4.2778284.5528245,6.09589,1.6584735,1.8535914,1.1058956,3.3151429,2.6572292,4.3846639,4.65475,1.0695211,1.9972648,1.6041631,4.2443583,1.6041631,6.7410056,0,.5707175-.0355297,1.141435-.1068261,1.7121525h-20.8543008c.1783783,1.5692361.6951276,2.9960299,1.5507501,4.2801538.8556131,1.2838773,1.942771,2.300526,3.2617298,3.0494718,1.3547254.7489458,2.8341602,1.1235515,4.4383234,1.1235515,2.9586327,0,5.5788944-1.2841239,7.8602923-3.8521061l2.5131892,2.300526c-1.140571,1.4267938-2.5844856,2.6393267-4.3312509,3.6380918-1.7467558.9629602-3.7963624,1.4444497-6.1493126,1.4444497ZM103.6809329,127.079905c-.3209805-2.4966473-1.2297696-4.4762751-2.7270972-5.9386178-1.4973276-1.4981382-3.3866856-2.247084-5.6680835-2.247084-1.4970812,0-2.9052196.3745962-4.2241784,1.123542-1.2834196.7133969-2.3529407,1.6942595-3.2083073,2.9425879-.8200928,1.2483284-1.3192052,2.6214337-1.4973371,4.1195719h17.3250036ZM122.5064863,141.6857143h-3.6361233v-22.1494586h-9.3042068v-3.5309519h22.1908776v3.5309519h-9.2505474v22.1494586ZM136.5203085,141.6857143v-25.6804105h3.6361233v8.6671914h6.7910366c2.8517971,0,5.1332045.8023878,6.8444306,2.4074099,1.7109797,1.5694826,2.5666117,3.6023058,2.5666117,6.0991902,0,2.4966568-.855632,4.547629-2.5666117,6.1526511-1.7112261,1.5692361-3.9926335,2.3539679-6.8444306,2.3539679h-10.4271599ZM146.9474684,138.2616368c1.8180522,0,3.2438465-.4635871,4.2775915-1.3910078,1.0339914-.9274207,1.5507406-2.1578371,1.5507406-3.6915338,0-1.5694637-.5167493-2.8178016-1.5507406-3.7452223-.9979783-.9271647-2.4240001-1.3909983-4.2775915-1.3909983h-6.7910366v10.2187621h6.7910366ZM173.3739538,142.2206458c-2.317174,0-4.4559698-.5883735-6.4166336-1.7653669-1.9606638-1.2127795-3.5292973-2.835704-4.7056349-4.8687548-1.1763566-2.0330697-1.7646581-4.2799072-1.7646581-6.7410151,0-2.4966473.5704087-4.7616338,1.7112261-6.7947036,1.14059-2.0330602,2.6736842-3.6380918,4.5985814-4.8150758,1.9248782-1.176984,4.0281537-1.765604,6.3097886-1.765604,2.2456218,0,4.2775915.5528245,6.0956626,1.6584735,1.8538378,1.1058956,3.3153798,2.6572292,4.3846639,4.65475,1.0695116,1.9972648,1.6044001,4.2443583,1.6044001,6.7410056,0,.5707175-.0357666,1.141435-.1070725,1.7121525h-20.8540544c.1781319,1.5692361.6951276,2.9960299,1.5504942,4.2801538.8556131,1.2838773,1.9430364,2.300526,3.2619857,3.0494718,1.3544695.7489458,2.8339233,1.1235515,4.438077,1.1235515,2.9588886,0,5.5788944-1.2841239,7.8605482-3.8521061l2.5131798,2.300526c-1.1408174,1.4267938-2.5844856,2.6393267-4.3312509,3.6380918-1.7467653.9629602-3.7966088,1.4444497-6.1493031,1.4444497ZM181.5015671,127.079905c-.3207435-2.4966473-1.2297696-4.4762751-2.7270972-5.9386178-1.4970812-1.4981382-3.3864392-2.247084-5.6678466-2.247084-1.4973276,0-2.9054566.3745962-4.2244059,1.123542-1.2834291.7133969-2.3527132,1.6942595-3.2083263,2.9425879-.8198464,1.2483284-1.3189493,2.6214337-1.4973276,4.1195719h17.3250036ZM194.3258689,141.6857143h-3.2619668v-25.6804105h3.6361233v19.6883508h.1070725l15.39986-19.6883508h3.2617393v25.6804105h-3.6358769v-19.6883508h-.1070914l-15.39986,19.6883508ZM202.2932431,111.8320339c-2.2458682,0-4.099706-.6776014-5.561248-2.0330602-1.461561-1.3910078-2.1922088-3.1921607-2.1922088-5.4034492h3.1546479c0,1.3196633.4101696,2.4074194,1.230016,3.2634956.8556131.8560763,1.9782913,1.2841239,3.3687928,1.2841239,1.3902551,0,2.4953059-.4280476,3.3151523-1.2841239.8556131-.8560763,1.2834291-1.9438323,1.2834291-3.2634956h3.1546479c0,2.2112886-.7306478,4.0124415-2.1922088,5.4034492-1.461561,1.3554588-3.3153987,2.0330602-5.5610205,2.0330602ZM244.4609543,142.2206458c-2.3527132,0-4.5265364-.5883735-6.5214695-1.7653669-1.9974351-1.2127795-3.5824639-2.835704-4.7600525-4.8687548-1.1751056-2.0330697-1.7638999-4.2799072-1.7638999-6.7410151s.5887943-4.7081919,1.7638999-6.7412616c1.1775886-2.0330602,2.7626175-3.6380918,4.7600525-4.8150758,1.9949331-1.2125329,4.1687562-1.8190459,6.5214695-1.8190459,2.3551773,0,4.5290004.606513,6.5239525,1.8190459,1.9974351,1.176984,3.5824639,2.7820156,4.7600525,4.8150758,1.1751056,2.0330697,1.7638999,4.2801538,1.7638999,6.7412616s-.5887943,4.7079454-1.7638999,6.7410151c-1.1775886,2.0330508-2.7626175,3.6559753-4.7600525,4.8687548-1.994952,1.1769935-4.1687752,1.7653669-6.5239525,1.7653669ZM244.4609543,138.6896844c1.7117189,0,3.2818497-.4280476,4.7078715-1.2841239,1.4608028-.8558297,2.6011274-2.0330697,3.4209738-3.5309614.8546274-1.5336777,1.2844147-3.2100442,1.2844147-5.0290901s-.4297872-3.4775194-1.2844147-4.9756577c-.8198464-1.5336872-1.960171-2.7285641-3.4209738-3.5846499-1.4260218-.8558297-2.9961526-1.2838679-4.7078715-1.2838679-1.7092549,0-3.2967667.4280381-4.7575695,1.2838679-1.4260407.8560858-2.5663653,2.0509627-3.4234568,3.5846499-.8198464,1.4981382-1.2297696,3.1566117-1.2297696,4.9756577s.4099232,3.4954124,1.2297696,5.0290901c.8570915,1.4978917,1.9974161,2.6751317,3.4234568,3.5309614,1.4608028.8560763,3.0483146,1.2841239,4.7575695,1.2841239ZM279.6520479,131.3600588c-.7502844.5349315-1.818564,1.0164021-3.2098047,1.4444497-1.3887767.3922426-2.8520625.58862-4.3849293.58862-2.8868246,0-5.2221378-.8918812-7.0034377-2.6751317-1.7465-1.8190459-2.6210104-4.2267118-2.6210104-7.2227417v-7.4899514h3.6371279v7.4899514c0,1.9617253.5689113,3.5312079,1.7092359,4.7081919,1.1776076,1.1414445,2.7452364,1.7119155,4.7054075,1.7119155,1.4632858,0,2.8346625-.2137678,4.1190772-.6418154,1.2819317-.4638336,2.2980492-.9808626,3.0483336-1.5515802v-11.7166633h3.5824449v25.6804105h-3.5824449v-10.3256555ZM302.2921029,142.2206458c-2.3179132,0-4.4569743-.5883735-6.4171454-1.7653669-1.960171-1.2127795-3.5277999-2.835704-4.7053885-4.8687548-1.1750867-2.0330697-1.763881-4.2799072-1.763881-6.7410151,0-2.4966473.5688924-4.7616338,1.7117189-6.7947036,1.1403246-2.0330602,2.6731914-3.6380918,4.5985625-4.8150758,1.922907-1.176984,4.0271681-1.765604,6.3078173-1.765604,2.2458492,0,4.2780843.5528245,6.0966293,1.6584735,1.853345,1.1058956,3.3141478,2.6572292,4.3849103,4.65475,1.0682985,1.9972648,1.6049308,4.2443583,1.6049308,6.7410056,0,.5707175-.037264,1.141435-.1068261,1.7121525h-20.856291c.1788521,1.5692361.6956204,2.9960299,1.5527308,4.2801538.8546085,1.2838773,1.942771,2.300526,3.2619857,3.0494718,1.3539767.7489458,2.8321795,1.1235515,4.4370724,1.1235515,2.9588696,0,5.5798989-1.2841239,7.8605482-3.8521061l2.5141654,2.300526c-1.1427887,1.4267938-2.5862294,2.6393267-4.3327483,3.6380918-1.746481.9629602-3.796116,1.4444497-6.1487913,1.4444497ZM310.4184653,127.079905c-.3204782-2.4966473-1.2297507-4.4762751-2.7253534-5.9386178-1.4980668-1.4981382-3.3861738-2.247084-5.669325-2.247084-1.4956028,0-2.9042435.3745962-4.2234203,1.123542-1.2844147.7133969-2.3527132,1.6942595-3.2073217,2.9425879-.8198464,1.2483284-1.3192147,2.6214337-1.4980668,4.1195719h17.3234872ZM319.9808003,152.920888v-36.9155842h3.6371279v4.4404796h.054664c.7129825-1.2841239,1.905507-2.4253124,3.5824639-3.424068,1.6744549-1.0343141,3.599826-1.5515896,5.7736491-1.5515896,2.1390611,0,4.1165942.58862,5.9351771,1.765604,1.853345,1.1414445,3.3340118,2.7285736,4.4395743,4.7616338,1.1055246,2.0330697,1.6570549,4.3157027,1.6570549,6.8481455,0,2.5324523-.5515303,4.8150758-1.6570549,6.8481455-1.1055625,2.0330697-2.5862294,3.6380918-4.4395743,4.8150663-1.8185829,1.141454-3.796116,1.711925-5.9351771,1.711925-2.1738232,0-4.0991942-.499392-5.7736491-1.4978917-1.6769569-1.0343046-2.8694814-2.1936421-3.5824639-3.4775194h-.054664v15.6756533h-3.6371279ZM332.601401,138.6896844c1.5676289,0,3.0309336-.4280476,4.3849103-1.2841239,1.3539767-.8558297,2.4247393-2.0330697,3.2073217-3.5309614.8198464-1.4981382,1.2297507-3.1745047,1.2297507-5.0290901,0-1.8903903-.4099043-3.5846499-1.2297507-5.0825415-.7825824-1.4981382-1.853345-2.6572292-3.2073217-3.477766-1.3539767-.8558297-2.8172815-1.2838679-4.3849103-1.2838679-1.6396928,0-3.1551596.4280381-4.5464004,1.2838679-1.3539767.8205368-2.4396373,1.9796278-3.2594837,3.477766-.7850465,1.4978917-1.1775886,3.1921512-1.1775886,5.0825415,0,1.8545854.3925422,3.5309519,1.1775886,5.0290901.8198464,1.4978917,1.905507,2.6751317,3.2594837,3.5309614,1.3912408.8560763,2.9067076,1.2841239,4.5464004,1.2841239ZM362.3194408,142.2206458c-2.3179132,0-4.4569743-.5883735-6.4171454-1.7653669-1.960171-1.2127795-3.5302639-2.835704-4.7053885-4.8687548-1.1775886-2.0330697-1.7663829-4.2799072-1.7663829-6.7410151,0-2.4966473.5713943-4.7616338,1.7117189-6.7947036,1.1403246-2.0330602,2.6731914-3.6380918,4.5985625-4.8150758,1.925409-1.176984,4.0296701-1.765604,6.3103193-1.765604,2.2458492,0,4.2780843.5528245,6.0966293,1.6584735,1.853345,1.1058956,3.3141478,2.6572292,4.3849103,4.65475,1.0682985,1.9972648,1.6024288,4.2443583,1.6024288,6.7410056,0,.5707175-.0348,1.141435-.1068261,1.7121525h-20.8537891c.1788521,1.5692361.6956204,2.9960299,1.5502289,4.2801538.8571104,1.2838773,1.942771,2.300526,3.2619857,3.0494718,1.3539767.7489458,2.8346436,1.1235515,4.4395743,1.1235515,2.9588696,0,5.577397-1.2841239,7.8605482-3.8521061l2.5117013,2.300526c-1.1403625,1.4267938-2.5837653,2.6393267-4.3302842,3.6380918-1.7465189.9629602-3.796116,1.4444497-6.1487913,1.4444497ZM370.4458031,127.079905c-.3204782-2.4966473-1.2297507-4.4762751-2.7278554-5.9386178-1.4955649-1.4981382-3.3861738-2.247084-5.6668231-2.247084-1.4980668,0-2.9042435.3745962-4.2234203,1.123542-1.2844526.7133969-2.3527132,1.6942595-3.2098237,2.9425879-.8198464,1.2483284-1.3192147,2.6214337-1.4956028,4.1195719h17.3235251ZM400.0271828,138.1547529h4.1687562v9.9510688h-3.6346259v-6.4201074h-20.9606151v6.4201074h-3.6371279v-9.9510688h2.032235c1.1055246-1.1058956,2.1017592-2.9604904,2.9936696-5.5642587.8918725-2.6393457,1.3738408-5.6711615,1.4434028-9.095239l.1614901-7.4899514h17.4328153v22.1494492ZM396.3900549,138.1547529v-18.6184972h-10.2678875l-.1068261,3.9589995c-.069562,3.3171841-.5341303,6.295321-1.3887767,8.9346477-.8198085,2.6395922-1.746481,4.547629-2.7799795,5.72485h14.5434698ZM412.3968673,141.6857143h-3.2619857v-25.6804105h3.6346259v19.6883508h.1068261l15.4006181-19.6883508h3.2619857v25.6804105h-3.6371279v-19.6883508h-.1068261l-15.3981162,19.6883508Z"/>
  <metadata>
    <sfw xmlns="http://ns.adobe.com/SaveForWeb/1.0/">
      <slices/>
      <sliceSourceBounds x="46" y="-42" width="636" height="174" bottomLeftOrigin="true"/>
    </sfw>
  </metadata>
  <metadata><?xpacket begin="﻿" id="W5M0MpCehiHzreSzNTczkc9d"?>
<x:xmpmeta xmlns:x="adobe:ns:meta/" x:xmptk="Adobe XMP Core 10.0-c000 1.000000, 0000/00/00-00:00:00        ">
   <rdf:RDF xmlns:rdf="http://www.w3.org/1999/02/22-rdf-syntax-ns#">
      <rdf:Description rdf:about=""
            xmlns:xmpMM="http://ns.adobe.com/xap/1.0/mm/"
            xmlns:stRef="http://ns.adobe.com/xap/1.0/sType/ResourceRef#"
            xmlns:stEvt="http://ns.adobe.com/xap/1.0/sType/ResourceEvent#"
            xmlns:illustrator="http://ns.adobe.com/illustrator/1.0/"
            xmlns:xmp="http://ns.adobe.com/xap/1.0/"
            xmlns:xmpGImg="http://ns.adobe.com/xap/1.0/g/img/"
            xmlns:pdf="http://ns.adobe.com/pdf/1.3/"
            xmlns:dc="http://purl.org/dc/elements/1.1/"
            xmlns:xmpTPg="http://ns.adobe.com/xap/1.0/t/pg/"
            xmlns:stDim="http://ns.adobe.com/xap/1.0/sType/Dimensions#"
            xmlns:xmpG="http://ns.adobe.com/xap/1.0/g/">
         <xmpMM:RenditionClass>proof:pdf</xmpMM:RenditionClass>
         <xmpMM:DocumentID>xmp.did:171d3507-1814-4d53-b37d-9a1c5b183e13</xmpMM:DocumentID>
         <xmpMM:InstanceID>xmp.iid:171d3507-1814-4d53-b37d-9a1c5b183e13</xmpMM:InstanceID>
         <xmpMM:OriginalDocumentID>uuid:c9a8f2cf-99bb-a845-ba5f-e697542c561a</xmpMM:OriginalDocumentID>
         <xmpMM:DerivedFrom rdf:parseType="Resource">
            <stRef:instanceID>uuid:3d3273a7-3dcb-1c49-9516-011d5a7141da</stRef:instanceID>
            <stRef:documentID>uuid:c9a8f2cf-99bb-a845-ba5f-e697542c561a</stRef:documentID>
            <stRef:originalDocumentID>uuid:c9a8f2cf-99bb-a845-ba5f-e697542c561a</stRef:originalDocumentID>
            <stRef:renditionClass>proof:pdf</stRef:renditionClass>
         </xmpMM:DerivedFrom>
         <xmpMM:History>
            <rdf:Seq>
               <rdf:li rdf:parseType="Resource">
                  <stEvt:action>saved</stEvt:action>
                  <stEvt:instanceID>xmp.iid:171d3507-1814-4d53-b37d-9a1c5b183e13</stEvt:instanceID>
                  <stEvt:when>2026-06-22T22:24:51+03:00</stEvt:when>
                  <stEvt:softwareAgent>Adobe Illustrator 30.4 (Macintosh)</stEvt:softwareAgent>
                  <stEvt:changed>/</stEvt:changed>
               </rdf:li>
            </rdf:Seq>
         </xmpMM:History>
         <illustrator:CreatorSubTool>AIRobin</illustrator:CreatorSubTool>
         <illustrator:IsFileSavedViaInstantSave>True</illustrator:IsFileSavedViaInstantSave>
         <xmp:CreateDate>2026-06-22T22:24:51+03:00</xmp:CreateDate>
         <xmp:CreatorTool>Adobe Illustrator 30.4 (Macintosh)</xmp:CreatorTool>
         <xmp:ModifyDate>2026-06-22T22:24:51+03:00</xmp:ModifyDate>
         <xmp:MetadataDate>2026-06-22T22:24:51+03:00</xmp:MetadataDate>
         <xmp:Thumbnails>
            <rdf:Alt>
               <rdf:li rdf:parseType="Resource">
                  <xmpGImg:width>256</xmpGImg:width>
                  <xmpGImg:height>72</xmpGImg:height>
                  <xmpGImg:format>JPEG</xmpGImg:format>
                  <xmpGImg:image>/9j/4AAQSkZJRgABAgEAAAAAAAD/7QAsUGhvdG9zaG9wIDMuMAA4QklNA+0AAAAAABAAAAAAAAEA&#xA;AQAAAAAAAQAB/+4ADkFkb2JlAGTAAAAAAf/bAIQABgQEBAUEBgUFBgkGBQYJCwgGBggLDAoKCwoK&#xA;DBAMDAwMDAwQDA4PEA8ODBMTFBQTExwbGxscHx8fHx8fHx8fHwEHBwcNDA0YEBAYGhURFRofHx8f&#xA;Hx8fHx8fHx8fHx8fHx8fHx8fHx8fHx8fHx8fHx8fHx8fHx8fHx8fHx8fHx8f/8AAEQgASAEAAwER&#xA;AAIRAQMRAf/EAaIAAAAHAQEBAQEAAAAAAAAAAAQFAwIGAQAHCAkKCwEAAgIDAQEBAQEAAAAAAAAA&#xA;AQACAwQFBgcICQoLEAACAQMDAgQCBgcDBAIGAnMBAgMRBAAFIRIxQVEGE2EicYEUMpGhBxWxQiPB&#xA;UtHhMxZi8CRygvElQzRTkqKyY3PCNUQnk6OzNhdUZHTD0uIIJoMJChgZhJRFRqS0VtNVKBry4/PE&#xA;1OT0ZXWFlaW1xdXl9WZ2hpamtsbW5vY3R1dnd4eXp7fH1+f3OEhYaHiImKi4yNjo+Ck5SVlpeYmZ&#xA;qbnJ2en5KjpKWmp6ipqqusra6voRAAICAQIDBQUEBQYECAMDbQEAAhEDBCESMUEFURNhIgZxgZEy&#xA;obHwFMHR4SNCFVJicvEzJDRDghaSUyWiY7LCB3PSNeJEgxdUkwgJChgZJjZFGidkdFU38qOzwygp&#xA;0+PzhJSktMTU5PRldYWVpbXF1eX1RlZmdoaWprbG1ub2R1dnd4eXp7fH1+f3OEhYaHiImKi4yNjo&#xA;+DlJWWl5iZmpucnZ6fkqOkpaanqKmqq6ytrq+v/aAAwDAQACEQMRAD8A4V5x84695u1651rWrl57&#xA;id2McZYlIUJ+GKJeioo22+Z3xVJMVTbQvKXmjX2ZdD0i81MoaSG0gkmC/wCsyKQvXviqvrnkPzto&#xA;MH1jWdBv9Ptth9YuLaWOKp6D1CvGvtXFUixV2KuxV2KuxV2KuxV2KuxV2KuxV2KuxV2KuxV2KuxV&#xA;2KuxV2KuxV2KuxV2KuxV2KuxVO/J3nHXvKOvW2taLcvBcQOpkjDEJMgPxRSr0ZGG2/zG+KpJir03&#xA;8gvysh/MDzg0WochoWlotxqXAlTJyNIoAw+z6hBqf5Qab74q+hvzK/PXyf8AlWYPK2h6Sl5f20al&#xA;tOt2W2trVGFUDsqv8bA8uIXpuSKiqqQeTP8AnLbyxrd1+jPN2lDSILgcPriubm2NRQrMhRWVT0r8&#xA;Q8aDfFXi3mXybL568z6pq/5X+WLo+WUm9ELGBw9YKGdkjJHpK9Qyp29vshVL/wDlRf5u/wDUrXv/&#xA;AAK/81Yqx298mea7LzAPLtxpVyuutx46asZknPNea0RORNVNcVZBqH5Hfmzp9g9/deWbsW0a83MY&#xA;SV1WlamONnk2HX4du+KsV0PQtX17VINK0e1e91G55ehbRULtwQyNStOiKTirIrf8nvzNuNZk0aLy&#xA;7dnUoYluJoCFUJFIWCM7swReRRqVbemKpX5q8i+b/Kc8cHmLSrjTmmFYXlWsb068JFLIxHcA7Yqn&#xA;Vv8Akl+a9xBHcQ+WbySGZVkicKtGVhVSPi7jFXXH5JfmvbwSXE3lm8jhhVpJXKrRVUVYn4uwxVhG&#xA;Ks1tPyW/NS8tIbu18tXkttcxrLBKqrRkcBlYfF0IOKq3/Ki/zd/6la9/4Ff+asVSPy/5B84+Ybu8&#xA;tNE0me/udPIW9iiAJiJJUBqkd1OKpno35OfmdrJuhp3l66mFlPJa3DtwjVZoXKSRhpGRWKMpDcSa&#xA;YqxzW9B1rQtRk03WbKbT76Khe3uEMbgHoaHqD2I2OKo/yt5D84+a5JE8vaRcaiIjSWSJf3aE7gPI&#xA;3FFPsTiqK80/lj5/8q263Ov6Hc2NqxA+ssokhBJoA0kZdFJ7AnFUo0Hy9rXmDU49L0W0kvtQlDNH&#xA;bRAFmCKWYitOgFcVZV/yov8AN3/qVr3/AIFf+asVYx5j8r+YPLWoDTtdsZNPvTGsogmADcGJCtsT&#xA;sSpxVPfL35Pfmb5h09NR0jy9dXFjKKxXDcIUkB/ajMrR8191qMVSLVvK/mHR9XGj6tYTWGpFlVbe&#xA;5X0ieR4qQXopUno1ae+Kpp5h/K/8wPLmnHUtb0K6sbBXWNrmVRwDP9kEgmlcVUP+VfedP8M/4o/R&#xA;E/8Ah/j6n6RoPS48/TrWtft7YqreXfyy8/8AmTT/ANI6Hod1f2PMxi4iUcC605AFiK0r2xVjlzbz&#xA;W1xLbTDjNC7RyKCGoyGhFVJB3HbFVPFXYq7FX1D/AM4XXFv9X812/IC552UnDuUpMK+4BxV4t+d+&#xA;n6rZfmv5nTUgwlmv5riBnH2reZi8BU9wIiq/RirCACSABUnYAYq9F/LT89fN35eaTdaZotpp9xb3&#xA;c/1mRr2OZ3D8FSimKaEUonhir6q/Of8AMrXfJH5fWvmPSYLWe+nuLeF47pJHiCzRu7ECOSJq1Xb4&#xA;sVeF/lX+Y/5qeafzW1LzNo2gWWo3t7aR2+qRKDbW0MaIEhf6xK0zxkslSoY86HbYFVX0H5Ctfzbt&#xA;tRnfz1quk3NvcoxtLHT43V4nBBorusfJFWtQQx6fF4qvGbXRtO0n/nMq2t9PhW3t5fWuTCgAQSTa&#xA;VK8hUDpyclvmcVZb+f8A+fOsfl/rVjomgWVtLqFzbreXd1do7oImdo0RFRo6sTE1STsPfoqm66rY&#xA;fnB+Qt7f6jZJb3Mtrct6YqUhvbMNwliYjlx5KD40JWp3xVg/5Ff85A+cvNPnHSfKOoWWnRaaLaRP&#xA;Wt4p1npbQEp8TzOm/AV+HFVb8/Pz784eUvNl95T06z0+XTprJOUtxHO0/wDpCEPRkmjTbt8OKvlT&#xA;FX2/5v8APuseRfyM0LX9Iht57xLTTIRHdq7xcZYFBNI3iavh8WKtf84+fm55k/Maz1qbW7azt302&#xA;SBIBZJKgIlVy3P1ZZq/YFKUxVhH/ADiv/wApz+YP/GeP/qIuMVUfzE/5yj17y1+YF5oejaTZvo+k&#xA;3LQXiziQTTyK379kZWVY6sTxPFt/iNa0xVkf/OSfl/S/Nn5ZaT5mgj9K+jms3spXAD+hqBVDE/tW&#xA;RW9iMVTb8y/Nll+SX5a6ZYeWNPied5BZ2QlU+nyCF5bibgVLu1PEVJ8BTFUH+Rn5u3H5qafrWg+a&#xA;dOtmnt4lMvoqwgnt5iUZXjdnoykeO9e1N1XmH5K+UG0P/nJXUNItKvaaGdQo5NSLfiYoixHf96gP&#xA;vir1d/zd8xH/AJyKi/LyIWraEVPrN6bfWA409runqcuP2wP2em2KvG/+crRct+cFkLWMy3J0+0EE&#xA;QQSl39aXivpkMHqduNDXFXs1hJ/zklq1ppt1J+hPKtvbwIb2C4DXEszAfEzoiskS0H2FkBXx8FUt&#xA;/wCctdFsLz8tLXV5UQ3+n3kPoXCbnhOCsiA/yMeLfQMVSr/nGnzpq3nfyzqnkrzRYtq2j2NuIxqM&#xA;1GQwyfCtpKSeRYAFo2G4A7UXFXp7flRpZ/K8/l4t3KNL/uxcEAzeh9b+scew5cfg5fTTtirzL/nJ&#xA;HzjqfkHylpXkvyrYHTNI1C2eBtQj+ysMfwtbRGpYSMG5O7bkHYkkkKvkzFXYq7FXYqy/8rfzH1T8&#xA;v/NkOuWaevAymDULMniJ7diCy134sCoZW7EeFRir6nvrz8gvzl02C4vrq2GoRLxj9WVbLUYK7lDy&#xA;I5qCT/OlemKqWk+TP+cevyrmbXJb62/SNsCYZ7y5W6uUP/FNvH+37rHy9+uKvlv80vMnljzH51vt&#xA;W8taX+idMnO0NQDK4J5TmMfDGZP5F2+knFX0L/zkt5m8t6j+UNhaafq1neXS3lozW9vcRSyALDIC&#xA;SiMTQE4qxz/nEv8AMLyrosWr+XtYuodOvL2ZLmzubhhGkoVODRGRqKCtKqCd6mmKvQPLGk/lB5I/&#xA;MKXU5/Nf6U80a564jmvLuGRbaAj1m5sCAnLiFVnap6KPtYqw6PUdP1H/AJzI0+60+6ivLV4XCT28&#xA;iyxkrpEoNGQkbHFXon5n+Wvyd86eZ4dC82Xg0/zDp9vHPbzCdLWSW2mdv3avIGSReSNVaclrUUri&#xA;rHfzT/Mv8vvy+/LWbyZ5Pubea/ntnsbO0s5Fm+rpNUTTzyKWo9GZhU8ixrSlTirw/wD5xs1HT9O/&#xA;NvS7rULqKztUhug89xIsUYLW7gVZyBucVRP/ADk7qem6l+ak91p13De2xs7ZRPbyLKlQpqOSEiox&#xA;V5Nir6p/ObzJ5dvP+cd9H0+01WzuL9IdLD2kU8TzKUiUPWNWLDj322xVLf8AnELzBoGk6d5mXVNS&#xA;tbBpZrQxC6njhLhVlrx9RlrSvbFUd/zinJHJ528/yRsHjeWNkdSCCDPOQQR1BxVk2reRf+cfvO3n&#xA;C/1u9vo4NZ0+7lt9Z01rqO2Ek1nKYWeaF/i4t6f2kIDDrvXFWEf85M/nJ5d1DSLfyV5Vuo7qOOaO&#xA;fUL20YG3RYN4oInT4Wo1GJXZaAda0VZhon5gflZ+c3kaDQfON3Dp+spwa4gllS2kFygKi4tJH+Bu&#xA;XI/DvSpBFNyqiLHVPyS/I7y7ffonUV1HVLqjNCLiO6vrh0B9JH9IKkUY5Hcqo3PU4qjf+cfdP0X/&#xA;AAfc/mVfssWt+aJbu61m9mcLFGsV7OoWPlQRxgKCd/1DFXaR5L/JbS/Px89Rea4p9eaa4uGafU7R&#xA;oi9zG8b/AAAKaBZTxFdtsVQf536T5T0HXfLX5q3ZmmuLLUbG1m9NleH6p+9kMiJT4nWvJTyxVF/m&#xA;Zpf5S/mBYabrms+cxBoFgjSvbWt5EsMwajDlGQz+oKUoF5/s0riqUfnx5g8qeZfymstL8vapYvLe&#xA;3WnrZ2n1mFGjRyAvqKX/AHYQEcuX2e+KqGq+cPJX5N/lCmkeVNUs9U8w3IMaTW0scxe8lX97dyBC&#xA;3FIwPgB8FXfc4qpL+Zsi/wDOMv1oeZY/8XfUTHzN0hv6m69PoW9Xn6P7X2u/viq/y/508m/nD+UM&#xA;2heb9TtNO8wWoET3F1LFEwuo1PoXkQcpUONnC/5S9CMVfKOqadPpuo3OnztG81rK0TyQussTFDTk&#xA;kiEqynqCOuKoXFXYq7FXYq7FXYq7FXYq7FXYqz38ifMOjeXfzV0PWdauVs9MtfrX1i5YMwX1LOaN&#xA;NkDNu7gdMVTf/nJHzd5c81fmFHqfl+9W/sVsIITOiuo9RHkLLR1U7Bh2xV5XirsVdirsVdirsVe5&#xA;/wDOLnn/AMoeUL/zDJ5k1JNOS8itltmdJH5mNpCwHpq/TkOuKvK/zA1Gy1Lz55k1GxlE9le6pe3F&#xA;rMAQHiluHdGAIB3Vgd8VSDFXYq7FXpmlfnv5i038sH/L2LT7N9Me3ubY3ber6/G6kklc7OEqDKaf&#xA;DirzPFXpnnv89/MXnHybZ+Vb7T7O3s7N4HSeD1fVJt4zGteTsu4bfbFXmeKuxV2KuxV2KuxV2Kux&#xA;V2Kso8vflf8AmB5i05dS0TQ7m/sGZo1uIgpUsmzDcjpiq7UPyr/MPTrn6te6DdQ3Btpr0RFQWNvb&#xA;U9aQAE7JzFcVUdd/Ljz5oGnJqWtaDe2Fg9B9ZmhZUUsaAOafASegamKqPlryF5z8zxzSeX9GutSi&#xA;tzSaWCMsitSvEvsvKn7Na4qr6N+W3nzWry/stM0O7uLzS2WPUbcJwkgeTlxWRX4kE+m33Yqi9Q/K&#xA;H8y9O+rfXvL13B9cnS0tear8c8teEa79WocVYncQTW88lvMhjmhZo5UPVWU0YH5EYqn/AJf/AC68&#xA;9eYrGW/0PQrzULKEkNcQxMyFh1VD+2wruq1OKrPKulSLrUlzqWiS6rpein19f0/k8Drbq4jk5MrI&#xA;6MrN/wAF1xVNvMGleVrvy3JdeStI1Oey0qX1db8wajxVkW5KRW1v6cMjwhQ1fipyYnsNsVYbbW1x&#xA;dXEVtbRPPcTMI4YY1Lu7saKqqtSST0AxVkGvflx588v6emo61oN7YWL0/wBJmhZUUsaKHNPgJPZq&#xA;HFUo1DRtU06CynvbZ4IdRhFzZO/SWEsV5r7clIxVETeVfMkOsw6I+m3B1e4WN4LFELzOsyCSMqic&#xA;ieSHliqJ8y+QvOflhIZPMGjXWmxXFBDLPGRGzEV4hxVeVP2a1xVH2H5TfmVqCs1l5cvZ0WGO45pE&#xA;SpjlQSJxboxZGBCjf2xVjsWj6tNqg0mKynfVDKYBYLG5n9UGhj9IDnyB2pSuKpp5k8gedPLEMM+v&#xA;6Ld6dBOQsM88ZEbMV5BOYqvOgJ41riqP0b8pPzI1rTINU0ry/dXmn3ILQXMYUq4DFSRUjupGKpPL&#xA;5T8xxSatHJYSrJoX/HXUgVt/jEf7zf8AnNMVULbQtYudJvNYgs5ZNLsGjjvLwL+7jeY0jVm8WOKo&#xA;DFWdflT+UXmL8xtTuLfTZI7SxsgrX2oTAlE514Iqru7txO23Tc4q9Z/6Eu1P/qaoP+kN/wDqrirv&#xA;+hLtT/6mqD/pDf8A6q4q7/oS7U/+pqg/6Q3/AOquKu/6Eu1P/qaoP+kN/wDqrirv+hLtT/6mqD/p&#xA;Df8A6q4q7/oS7U/+pqg/6Q3/AOquKu/6Eu1P/qaoP+kN/wDqrirIfJH/ADiJpOj65ban5g1n9Lw2&#xA;jiWPTo7f0Y3dCCvquZJCy16oAK+NNsVfJeKvSf8AnHi6uR+b/lqASuITPNWIMeJ/0eT9npiqcf8A&#xA;ONtzrlx531f6hOz6qNBvxpzStyC3B9P0vtGgHOmKq/5U2nnS21bzVP5tS9i8tDS70eZzqfqLG7tH&#xA;SIfvtmnMpXhT4vDFU31IeWpvyw8j3P1PzBcaTBamOT/D1xbxQR6msp9drlGhmcTseLKzN9n7I61V&#xA;Yp+auvXdx5y0CM6fqej3ttY2VvdNqkim9ukVy0M1w0QjDP6bhSWXltQ74qnmp3Vy3/OVkcLSu0K+&#xA;YbfjGWJUfEnQdMVVtU8r+UvM9v52k/wVdeV7nQ7W91KHzALq6lgnnt32gkS6Hp1uK/DwNfDbFU08&#xA;5Dy5Lp3ky9hsPNE+mjSrQaLJ5euYEtIp+FJkVRBKyXPq1ElW5E4qirK1uvOPnfz5plvps2iatd+W&#xA;4LS+TU3iEhmWaDlc3DxBUq0XF3oPHbtiqTXvmDQJPyk8/wDlTyuqny35fh0oR3xUCW/vJdRjFxeO&#xA;evFzGBGvZAPkFWFfkQ6L5xvBbsia9JpN/H5Zdyqgao8NIKF9gxHIL/lUxVPfyotPO1rqvmObzNFf&#xA;Q+V/0XfjzOdREiRuTAwiB9fYzmbhw/axVLzqv5Z+bfKHl218w61deXtZ8t2z2DrFZNex3duJGljM&#xA;ZWSP03HOh5d/bFXqKfoc/mv5rtbZbuXU5vLFiNCa0eKDUWjW1h9ZbV5FkVbh4f5RWgamKsFudS0v&#xA;T/y3802lloPmh9KuxFDNNrc0Elpa3nqho5UVYYGEvIUbie/xdsVRX50WX5kzt5IfTIr+bSBomnjS&#xA;/qAkYLdCFTLX0txL9mhPalO+KsytbixH5k3dve+pJ56fyXBFftpssEd82roK3ccEjCRPrbW/HcDs&#xA;aYqwhb7TLLyH5qsLDy75ruNPvI0gm/TMsEtrbXzyj0JkQQQv63qGh4GpB3GKrPNGleZ9Puvy10CK&#xA;1vPV0qytZNS9KOULHLeXbXBhk4inKONl5fPFWR23lbUdd87/AJyaKhWzk1Aqy3F0fSiSAagrvOzN&#xA;T4FRGavtiqUar5k0G8/J/wA8eXfLEXHyx5dl0aGxuWUCa8nmuZfrN7KaA1mMS8VPRQNh0xV4Pir6&#xA;5/5w2Vf8D641ByOp0J70FvHT9eKvoDFXYq7FXYq7FXYq7FXYq/MbFUXpWranpOoQ6jpl1JZ39uS0&#xA;FzCxSRCQVJVhuNiRirJ/yy8y6XoE/mSTUJmhOoeX9S06zZFZibq5jCxL8IPGpH2jsMVSnWPPHnPW&#xA;rGOw1fXL/ULKKhS2ubmWWOo6EqzEEjsTiqnoPnDzX5e9QaFrF5pizf3y2s8kSuRsCyoQCR74ql91&#xA;qN/d3z391cy3F9I/qSXUrtJKz9eTOxLE+5xVEv5i119c/TzX87a0JRcfpAufX9Vej8+vIU64qj9c&#xA;/MHzzr1p9S1nX7/ULOoY209xI8RYGoJQniSO1RiqlofnjzloNtJa6Jrl9pttKSZILW4liQsRQtxR&#xA;gA232uuKoS28wa7atfPb6hcRPqcbQ6i6yuGnjkPJ0latXDEb164qpW2rana2N5YW91JFZagI1vrd&#xA;GISYQv6kYkUbNwf4h74qhopZYZUlido5Y2DxyISrKymoII3BBxVOtZ88ec9bs47LWNcv9Qs4qcLe&#xA;5uZZY6joSrMQSPE4qkeKphc+YNcudSi1Se/uH1KERiG8MjesghULHxcHkOCqAtOmKonXfOfm7zBF&#xA;FFrmtXupxQGsMd3cSTIrUpyCuxHKnfrirMfOn5rawNUspPKGvX9jZjSNPs7xLaWa2U3FvbrFJVQV&#xA;qVIoH+44q88jv76O9F/HcypfCT1hdq7CUSV5c/UB5cq71rirIf8AlZPnK61XSr7WtXvdYi0m6hu4&#xA;bS7uZZIy0DhxsxYBjSnKlcVTXWfzx/M2/wBYvr628w6hYW13cSzw2MV1IY4EkcssSfZ+FAeI2xVC&#xA;+b/zU8y+Y54pzcT2kj6Ta6RqjJO7G9W2qWknNFr6jNyKmuKsXt9W1O20+706C6kisL8xNe2ysRHK&#xA;YCWiLr0bgWJXFUJir66/5w2/5QbW/wDtqH/qHixV7/irsVdirsVdirsVdirsVfF3nv8A5xf/ADE0&#xA;zXroeXNPGr6JJKzWU0U0SyJGxJWOVJXRuSjbkKg+1aYqxv8A6F6/OX/qWZ/+Rtt/1VxV3/QvX5y/&#xA;9SzP/wAjbb/qrirv+hevzl/6lmf/AJG23/VXFXf9C9fnL/1LM/8AyNtv+quKu/6F6/OX/qWZ/wDk&#xA;bbf9VcVd/wBC9fnL/wBSzP8A8jbb/qrirv8AoXr85f8AqWZ/+Rtt/wBVcVd/0L1+cv8A1LM//I22&#xA;/wCquKu/6F6/OX/qWZ/+Rtt/1VxV3/QvX5y/9SzP/wAjbb/qrirv+hevzl/6lmf/AJG23/VXFXf9&#xA;C9fnL/1LM/8AyNtv+quKu/6F6/OX/qWZ/wDkbbf9VcVd/wBC9fnL/wBSzP8A8jbb/qrirv8AoXr8&#xA;5f8AqWZ/+Rtt/wBVcVd/0L1+cv8A1LM//I22/wCquKu/6F6/OX/qWZ/+Rtt/1VxV3/QvX5y/9SzP&#xA;/wAjbb/qrirv+hevzl/6lmf/AJG23/VXFXf9C9fnL/1LM/8AyNtv+quKu/6F6/OX/qWZ/wDkbbf9&#xA;VcVXxf8AOOv5zSyLGPLUqljTk89qqj5ky0xV9X/kZ+WVx+X3kr9GX0yTapeTteX7REmNHZVRY0Jp&#xA;UKqDenWuKvQ8VdirsVdirsVdirsVdir/AP/Z</xmpGImg:image>
               </rdf:li>
            </rdf:Alt>
         </xmp:Thumbnails>
         <pdf:Producer>Adobe PDF library 18.00</pdf:Producer>
         <dc:format>image/svg+xml</dc:format>
         <dc:title>
            <rdf:Alt>
               <rdf:li xml:lang="x-default">left</rdf:li>
            </rdf:Alt>
         </dc:title>
         <xmpTPg:NPages>1</xmpTPg:NPages>
         <xmpTPg:HasVisibleTransparency>False</xmpTPg:HasVisibleTransparency>
         <xmpTPg:HasVisibleOverprint>False</xmpTPg:HasVisibleOverprint>
         <xmpTPg:MaxPageSize rdf:parseType="Resource">
            <stDim:w>636.000000</stDim:w>
            <stDim:h>174.000000</stDim:h>
            <stDim:unit>Pixels</stDim:unit>
         </xmpTPg:MaxPageSize>
         <xmpTPg:PlateNames>
            <rdf:Seq>
               <rdf:li>Cyan</rdf:li>
               <rdf:li>Magenta</rdf:li>
               <rdf:li>Yellow</rdf:li>
               <rdf:li>Black</rdf:li>
            </rdf:Seq>
         </xmpTPg:PlateNames>
         <xmpTPg:SwatchGroups>
            <rdf:Seq>
               <rdf:li rdf:parseType="Resource">
                  <xmpG:groupName>Default Swatch Group</xmpG:groupName>
                  <xmpG:groupType>0</xmpG:groupType>
               </rdf:li>
            </rdf:Seq>
         </xmpTPg:SwatchGroups>
      </rdf:Description>
   </rdf:RDF>
</x:xmpmeta>
                                                                                                    
                                                                                                    
                                                                                                    
                                                                                                    
                                                                                                    
                                                                                                    
                                                                                                    
                                                                                                    
                                                                                                    
                                                                                                    
                                                                                                    
                                                                                                    
                                                                                                    
                                                                                                    
                                                                                                    
                                                                                                    
                                                                                                    
                                                                                                    
                                                                                                    
                                                                                                    
                           
<?xpacket end="w"?>
  </metadata>
</svg>