<svg xmlns="http://www.w3.org/2000/svg" width="436" height="201.08" data-translate-hint-x="0" data-translate-hint-y="0"><defs><path id="a" d="m71.65-11.77-8.89-8.99q-3.29 4.8-8.43 7.65-5.14 2.83-11.43 2.83-6.77 0-12.13-3.29-5.33-3.29-8.43-9.01-3.07-5.75-3.07-13.14 0-7.38 3.07-13.06 3.1-5.7 8.43-8.99 5.36-3.31 12.13-3.31 6.29 0 11.43 2.85t8.43 7.63l8.89-8.97q-4.7-5.99-12.18-9.67-7.48-3.7-16.57-3.7-8.18 0-15.13 2.75-6.91 2.73-12.01 7.77-5.09 5.04-7.94 11.89-2.83 6.82-2.83 14.81 0 8.19 2.73 14.99 2.76 6.77 7.8 11.81 5.04 5.02 11.91 7.77 6.9 2.76 15.18 2.76 9.09 0 16.71-3.71 7.63-3.7 12.33-9.67"/><path id="b" d="M6.89-50.19V0h13.16v-22.86L40.91 0h16.56L33.51-25.74l21.97-24.45H39.71L20.05-28.26v-21.93z"/><path id="c" d="M6.89-50.19V0h11.58L42.9-32.3V0h12.58v-50.19H43.9l-24.43 32.3v-32.3z"/><path id="d" d="M14.67 0v13.67H2.29v-24.24h4.09q2.1 0 3.34-.81 1.27-.8 1.95-2.9.71-2.09 1.1-6.09l3.19-29.82h38.93v39.62h8.19v24.24H50.7V0zm7.79-10.57H42v-29.04H27.38l-2.24 20.34q-.58 4.9-2.14 7.79-.25.48-.54.91"/><path id="e" d="M17.27-1.83q6.29 3.44 14.48 3.44 8.16 0 14.44-3.44 6.29-3.46 9.77-9.5 3.51-6.04 3.51-13.81 0-7.8-3.51-13.77-3.48-5.99-9.77-9.43-6.28-3.46-14.44-3.46-8.19 0-14.48 3.46-6.28 3.44-9.79 9.43Q4-32.94 4-25.05q0 7.68 3.48 13.72 3.51 6.04 9.79 9.5m21.86-9.55q-3.19 2-7.38 2-4.22 0-7.41-2t-5-5.53q-1.77-3.56-1.77-8.14 0-4.7 1.77-8.23 1.81-3.53 5-5.53t7.41-2q4.19 0 7.38 2t4.97 5.53q1.8 3.53 1.8 8.23 0 4.58-1.8 8.14-1.78 3.53-4.97 5.53"/><path id="g" d="M38.71-71.36H27.43L7.48-58.47v13.37l17.86-12.18V0h13.37z"/><path id="h" d="M17.37-2.78q6.38 4.39 15.25 4.39 8.99 0 15.33-4.39 6.33-4.41 9.72-12.74 3.41-8.33 3.41-20.1 0-17.76-7.55-27.53-7.53-9.79-20.91-9.79-13.25 0-20.85 9.79-7.58 9.77-7.58 27.53 0 11.77 3.39 20.1 3.41 8.33 9.79 12.74m26.24-13.23q-3.9 6.63-10.99 6.63-6.97 0-10.86-6.63-3.9-6.65-3.9-19.61 0-13.08 3.9-19.71 3.89-6.65 10.86-6.65 7.09 0 10.99 6.65 3.9 6.63 3.9 19.71 0 12.96-3.9 19.61"/><path id="i" d="M10.38-41.22q3.8 2.19 8.48 2.19 4.89 0 8.62-2.19 3.75-2.2 5.95-6.04 2.19-3.85 2.19-8.53 0-4.7-2.19-8.48-2.2-3.8-5.95-5.99-3.73-2.2-8.62-2.2-4.68 0-8.48 2.2-3.8 2.19-5.99 5.99-2.2 3.78-2.2 8.48 0 4.68 2.2 8.53 2.19 3.84 5.99 6.04M8.48 0h13.18l49.9-71.36H58.28zm15.23-50.51q-1.95 2.1-4.85 2.1t-4.85-2.1q-1.93-2.09-1.93-5.28 0-3.1 1.93-5.19 1.95-2.1 4.85-2.1t4.85 2.1q1.94 2.09 1.94 5.19 0 3.19-1.94 5.28M52.6-1.1q3.8 2.2 8.48 2.2 4.9 0 8.62-2.2 3.76-2.19 5.95-6.04t2.19-8.53q0-4.7-2.19-8.47-2.19-3.8-5.95-6-3.72-2.19-8.62-2.19-4.68 0-8.48 2.19-3.8 2.2-5.99 6-2.2 3.77-2.2 8.47 0 4.68 2.2 8.53Q48.8-3.29 52.6-1.1m13.33-9.28q-1.95 2.1-4.85 2.1t-4.85-2.1q-1.92-2.09-1.92-5.29 0-3.09 1.92-5.19 1.95-2.09 4.85-2.09t4.85 2.09q1.95 2.1 1.95 5.19 0 3.2-1.95 5.29"/><path id="j" d="M19.15-40.52q1.51-3.19 2.9-7.18 1.41 3.99 2.9 7.18 1.48 3.2 2.48 4.58 1.51 2.32 4.19 2.32 2 0 3.49-1.44 1.51-1.46 1.51-3.17 0-1.9-1.29-3.67-1-1.42-3.56-3.76-2.53-2.34-5.82-4.85 4.28-.19 7.43-.63 3.14-.46 4.75-.85 3.77-1.1 3.77-4.58 0-2.22-1.34-3.66-1.34-1.43-3.43-1.43-1.32 0-2.7.48-1.39.52-3.85 1.95-2.44 1.44-6.02 4.14 1.09-4.09 1.78-7.52.7-3.46.7-5.14 0-2.39-1.36-3.83-1.34-1.46-3.63-1.46t-3.66 1.46q-1.34 1.44-1.34 3.83 0 1.68.66 5.14.66 3.43 1.85 7.52-3.7-2.7-6.09-4.14-2.38-1.43-3.9-1.95-1.29-.48-2.68-.48-1.99 0-3.36 1.43-1.34 1.44-1.34 3.66 0 3.48 3.71 4.58 1.58.39 4.72.85 3.15.44 7.43.63-3.29 2.51-5.84 4.85-2.54 2.34-3.44 3.76-1.39 1.77-1.39 3.67 0 1.71 1.49 3.17 1.51 1.44 3.6 1.44 2.59 0 4.19-2.32 1-1.38 2.49-4.58"/><g id="k"><use y="87.62" href="#a"/><use x="75.04" y="87.62" href="#b"/><use x="133.72" y="87.62" href="#c"/><use x="196.09" y="87.62" href="#d"/><use x="263.55" y="87.62" href="#b"/><use x="322.23" y="87.62" href="#c"/></g><g id="l"><use y="187.41" href="#d"/><use x="63.47" y="187.41" href="#e"/><use x="146.4" y="187.41" href="#g"/><use x="194.99" y="187.41" href="#h"/><use x="260.36" y="187.41" href="#i"/><use x="340.39" y="187.41" href="#j"/></g><g id="m" fill="#fff"><use href="#k"/><use href="#l"/></g></defs><use href="#m"/></svg>