<?xml version="1.0" encoding="UTF-8"?>
<svg id="Layer_1" xmlns="http://www.w3.org/2000/svg" version="1.1" viewBox="0 0 566 174">
  <!-- Generator: Adobe Illustrator 30.4.0, SVG Export Plug-In . SVG Version: 2.1.4 Build 226)  -->
  <defs>
    <style>
      .st0 {
        fill: #141414;
      }

      .st1 {
        fill: #fff;
      }
    </style>
  </defs>
  <path class="st0" d="M381.6911996,51.8619294c0,9.7962844,7.9374279,17.7376983,17.729011,17.7376983h148.8531511c9.7892463,0,17.7266383,7.9411711,17.7266383,17.7374555v68.9254702c0,9.7960506-7.9373919,17.7374465-17.7266383,17.7374465H17.7285526c-9.7911315,0-17.7285526-7.9413959-17.7285526-17.7374465v-86.6492579c0-.0075443.006125-.0136678.0139014-.0136678.0075383,0,.0136632-.0063663.0136632-.0139106V17.7374578C.0275646,7.9414071,7.9649858,0,17.7563554,0h346.2057973c9.791619,0,17.7290469,7.9414071,17.7290469,17.7374578v34.1244717Z"/>
  <path class="st1" d="M27.9352903,70.6745049V19.8709567h10.8810287v21.7729858l19.585804-21.7729858h13.0572776l-18.8603832,21.0472052,20.3112158,29.7563429h-12.6944526l-14.8709396-21.7729813-6.5285219,6.8948121v14.8781692h-10.8810287ZM76.188627,70.6745049v-35.562601h17.4097933c4.0622378,0,7.1813732.919311,9.3576221,2.7579239,2.2245476,1.8386175,3.3368305,4.1852112,3.3368305,7.040015,0,2.1773462-.7979903,4.0642822-2.3937192,5.6610508-.7254163.7257806-1.4991314,1.2578015-2.3213789,1.5965302,1.1122738.3387288,2.1279501.8952664,3.0467952,1.66937,2.0794266,1.6934101,3.1191355,3.7981549,3.1191355,6.3142344,0,3.0480914-1.1848388,5.5641709-3.5545255,7.5479868-2.3696776,1.983582-5.6579757,2.97549-9.8653434,2.97549h-18.1352096ZM85.9816481,62.3281361h7.9793635c1.1122738,0,1.9828201-.3144504,2.6114052-.9433511.6771175-.6291345,1.0156763-1.4032471,1.0156763-2.3225536s-.3385588-1.6934101-1.0156763-2.3223108c-.6285851-.6291345-1.4991314-.9435849-2.6114052-.9435849h-7.9793635v6.5318004ZM85.9816481,48.5387502h7.2539382c.8705553,0,1.5717053-.2420827,2.1036929-.7257806.5319875-.4839317.7979813-1.0887923.7979813-1.8145728s-.2659938-1.3304029-.7979813-1.8143346c-.5319875-.4839361-1.2331376-.7257851-2.1036929-.7257851h-7.2539382v5.0804731ZM134.2321581,70.6745049v-4.3544497h-.3625913c-.8705463,1.0642756-1.7651251,1.9109806-2.6839702,2.5401151-2.1279501,1.6934101-4.7393553,2.5401151-7.8344672,2.5401151-3.2399903,0-5.8756617-.9433511-7.9067805-2.8305209-1.9828291-1.935259-2.9742392-4.3787371-2.9742392-7.3301824,0-2.9031313.9188451-5.370645,2.7565352-7.4027884,1.8862316-2.0804664,4.4733705-3.4111031,7.7618932-3.9916808l11.24362-2.0321434c-.1934288-1.3549196-.8220138-2.467752-1.8859889-3.3385017-1.0639751-.9193065-2.4905414-1.3789642-4.2799328-1.3789642-2.2245476,0-4.1831195.6772238-5.8756706,2.0321434-.8705553.6289007-1.5717053,1.2820799-2.1036929,1.9595419l-5.8031057-5.8062581c1.0637414-1.3063583,2.2971216-2.4434691,3.6994218-3.4111031,3.3853629-2.3223108,6.9881871-3.4837045,10.8084637-3.4837045,4.449329,0,8.100461,1.3549196,10.9535937,4.0642822,2.8533664,2.7096009,4.2799328,6.0723855,4.2799328,10.0883447v22.1357547h-9.7930211ZM134.2321581,55.4335623v-.7257851l-7.9793455,1.4513274c-2.659704.5322592-3.9896818,1.7419714-3.9896818,3.6289074,0,2.4191997,1.4508416,3.6289119,4.3525067,3.6289119,2.1760152,0,3.9896728-.750059,5.4405054-2.2499432,1.4508326-1.4998932,2.1760152-3.4111076,2.1760152-5.7334184ZM152.7327811,85.9156903v-50.8037864h9.7930211v5.0804731h.362825c.6768838-1.0161863,1.5957289-1.9838203,2.7565352-2.9031268,2.6114232-1.935259,5.4405233-2.9031268,8.4870848-2.9031268,4.3039653,0,8.027896,1.766016,11.1712887,5.2982774,3.1916915,3.5320276,4.7876541,7.9350431,4.7876541,13.2088037,0,5.322322-1.5959626,9.7496159-4.7876541,13.281648-3.1433927,3.4837-6.8673234,5.2254331-11.1712887,5.2254331-3.0465615,0-5.8756617-.9676295-8.4870848-2.9031223-1.1608063-.9193065-2.0796513-1.886936-2.7565352-2.9028885h-.362825v20.3214157h-9.7930211ZM164.774616,59.6428091c1.7408589,1.7902989,3.8928595,2.685327,6.4559659,2.685327s4.7150891-.8950281,6.4561816-2.685327c1.7408769-1.7900561,2.6114232-4.0400038,2.6114232-6.7496047,0-2.7093626-.8705463-4.9593103-2.6114232-6.7496047-1.7410926-1.7902944-3.8930752-2.6853225-6.4561816-2.6853225s-4.715107.8950281-6.4559659,2.6853225c-1.7410926,1.7902944-2.6114052,4.0402421-2.6114052,6.7496047,0,2.7096009.8703126,4.9595486,2.6114052,6.7496047ZM203.5449955,70.6745049v-26.4904427h-11.24362v-9.0721583h32.2811958v9.0721583h-11.2452557v26.4904427h-9.7923201ZM229.6315276,70.6745049v-35.562601h9.7916011v20.3216584l15.2339938-20.3216584h8.7054808v35.562601h-9.7939558v-20.3214157l-15.2316391,20.3214157h-8.7054808ZM272.0468916,85.9156903v-50.8037864h9.7939738v5.0804731h.362807c.6761828-1.0161863,1.5950279-1.9838203,2.7565352-2.9031268,2.6104705-1.935259,5.440056-2.9031268,8.4863838-2.9031268,4.3044327,0,8.0269433,1.766016,11.1722413,5.2982774,3.1900198,3.5320276,4.7874204,7.9350431,4.7874204,13.2088037,0,5.322322-1.5974006,9.7496159-4.7874204,13.281648-3.1452981,3.4837-6.8678087,5.2254331-11.1722413,5.2254331-3.0463278,0-5.8759133-.9676295-8.4863838-2.9031223-1.1615073-.9193065-2.0803524-1.886936-2.7565352-2.9028885h-.362807v20.3214157h-9.7939738ZM284.0884929,59.6428091c1.7410926,1.7902989,3.8944952,2.685327,6.4578353,2.685327,2.5610033,0,4.714406-.8950281,6.4554986-2.685327,1.7410926-1.7900561,2.6104705-4.0400038,2.6104705-6.7496047,0-2.7093626-.8693779-4.9593103-2.6104705-6.7496047s-3.8944952-2.6853225-6.4554986-2.6853225c-2.5633401,0-4.7167428.8950281-6.4578353,2.6853225s-2.6104705,4.0402421-2.6104705,6.7496047c0,2.7096009.8693779,4.9595486,2.6104705,6.7496047ZM335.8996489,70.6745049v-4.3544497h-.362807c-.8693779,1.0642756-1.7646757,1.9109806-2.6835208,2.5401151-2.1274828,1.6934101-4.74029,2.5401151-7.8337482,2.5401151-3.2418956,0-5.8759133-.9433511-7.9067985-2.8305209-1.9837548-1.935259-2.9756502-4.3787371-2.9756502-7.3301824,0-2.9031313.9188451-5.370645,2.7565352-7.4027884,1.8871573-2.0804664,4.4740805-3.4111031,7.7630706-3.9916808l11.242919-2.0321434c-.1931951-1.3549196-.8222475-2.467752-1.8848205-3.3385017-1.0649098-.9193065-2.4902898-1.3789642-4.2808854-1.3789642-2.2240803,0-4.1819152.6772238-5.8758774,2.0321434-.8693779.6289007-1.5714807,1.2820799-2.1039355,1.9595419l-5.802863-5.8062581c1.0649098-1.3063583,2.2970947-2.4434691,3.6989275-3.4111031,3.3855876-2.3223108,6.9879535-3.4837045,10.8093984-3.4837045,4.4481606,0,8.0999936,1.3549196,10.9531263,4.0642822,2.8531327,2.7096009,4.2808854,6.0723855,4.2808854,10.0883447v22.1357547h-9.7939558ZM335.8996489,55.4335623v-.7257851l-7.9798129,1.4513274c-2.6599736.5322592-3.988756,1.7419714-3.988756,3.6289074,0,2.4191997,1.4512999,3.6289119,4.3515631,3.6289119,2.1769499,0,3.9910928-.750059,5.440056-2.2499432,1.4512999-1.4998932,2.1769499-3.4111076,2.1769499-5.7334184ZM23.9456131,122.3407953v-9.0721583h12.3318613v-12.3380541h8.3419458v12.3380541h12.3318613v9.0721583h-12.3318613v12.3380541h-8.3419458v-12.3380541h-12.3318613ZM78.0135998,139.033299v-35.562601h9.7927874v26.4904517h9.7930121v-26.4904517h9.7930211v26.4904517h9.7927874v-26.4904517h9.7930211v35.562601h-48.9646291ZM135.3062711,139.033299v-35.562601h9.7927874v14.5154048l12.6946863-14.5154048h11.606445l-13.0572776,14.8781782,13.7826939,20.6844228h-11.2438537l-9.0673711-13.7896152-4.7153227,5.4432465v8.3463688h-9.7927874ZM183.275239,128.0016033c1.7408589,1.7902989,3.8928415,2.685327,6.4559659,2.685327,2.5631064,0,4.7150891-.8950281,6.4561816-2.685327,1.7408589-1.7900561,2.6114232-4.0399993,2.6114232-6.7496047,0-2.7093626-.8705643-4.9593148-2.6114232-6.7496047-1.7410926-1.7902899-3.8930752-2.685318-6.4561816-2.685318-2.5631244,0-4.715107.8950281-6.4559659,2.685318-1.7410926,1.7902899-2.6114052,4.0402421-2.6114052,6.7496047,0,2.7096054.8703126,4.9595486,2.6114052,6.7496047ZM176.3839011,134.3158422c-3.6753982-3.6289119-5.5130883-7.9833706-5.5130883-13.0638436,0-5.0802393,1.8376901-9.4349228,5.5130883-13.0638346,3.6753802-3.6286781,8.1244755-5.4432465,13.3473039-5.4432465,5.223044,0,9.6721573,1.8145683,13.3475375,5.4432465,3.6753802,3.6289119,5.5135557,7.9835954,5.5135557,13.0638346,0,5.0804731-1.8381754,9.4349317-5.5135557,13.0638436-3.6753802,3.6289029-8.1244935,5.4432375-13.3475375,5.4432375-5.2228283,0-9.6719236-1.8143346-13.3473039-5.4432375ZM209.6854826,139.033299v-9.0721494l.8693779.2178043c.6785196.0968798,1.2345396.1452029,1.6704149.1452029,1.3523477,0,2.3937102-.3630072,3.1193602-1.088554.7727804-.7257806,1.4018328-2.346832,1.8848205-4.8626687.5324549-2.5160795.7986823-6.0964256.7986823-10.7415238v-10.1607123h29.0167056v35.562601h-9.7939738v-26.4904427h-9.4311308v1.088554c0,17.6603761-4.3515631,26.4906765-13.0570439,26.4906765-1.4984303,0-2.7565352-.1694813-3.7719778-.5082101-.7727804-.338495-1.2086377-.5322547-1.3052352-.5805777ZM275.7034161,139.033299v-4.3544497h-.362807c-.8717506,1.0642756-1.7646757,1.9109806-2.6835208,2.5401151-2.1298375,1.6934101-4.74029,2.5401151-7.8361029,2.5401151-3.2395229,0-5.8759133-.9433511-7.9067985-2.8305209-1.9814001-1.935259-2.9732955-4.3787281-2.9732955-7.3301824,0-2.9031313.918863-5.370645,2.7565532-7.4027929,1.8848025-2.0804619,4.4740625-3.4110986,7.7607159-3.9916763l11.2452557-2.0321479c-.1931951-1.3549151-.8222475-2.4677475-1.8871573-3.3384972-1.062573-.9193065-2.4903077-1.3789597-4.2785307-1.3789597-2.226435,0-4.1842879.6772238-5.8758953,2.0321389-.8717326.6289007-1.5714807,1.2820799-2.1039355,1.9595374l-5.802863-5.8062536c1.062555-1.3063583,2.2971126-2.4434691,3.6989454-3.4110986,3.3855876-2.3223198,6.9879355-3.483709,10.8093984-3.483709,4.4481786,0,8.0999756,1.3549151,10.9531084,4.0642867,2.8531687,2.7095964,4.2785487,6.072381,4.2785487,10.0883447v22.1357502h-9.791619ZM275.7034161,123.7923564v-.7257806l-7.9798129,1.4513274c-2.6599556.5322547-3.9887381,1.7419669-3.9887381,3.6289029,0,2.4191997,1.4489452,3.6289119,4.3515631,3.6289119,2.1769499,0,3.9887381-.750059,5.440038-2.2499432,1.4512999-1.4998932,2.1769499-3.4111076,2.1769499-5.7334184ZM305.1159488,153.1859215v-9.0721404c.4829877.1935259.869342.3144504,1.1615073.3627734.8693779.2420827,1.8117702.3630072,2.8272128.3630072,2.8531327,0,4.9099379-1.4515612,6.1657059-4.3547015l.72565-1.8143346-13.7827118-35.1998276h10.5196417l8.3426558,23.5875542h.3604703l7.9798129-23.5875542h10.5196057l-14.5083258,38.4657234c-1.5479334,4.1126187-3.432718,7.1849886-5.659171,9.2171274-2.1746132,2.0806957-4.8840179,3.1209266-8.1235408,3.1209266-1.7410926,0-3.2889901-.1694813-4.6437284-.5079763-.1931591-.0485568-.506535-.1452029-.9423923-.2904057-.4358573-.0966461-.7491972-.1935259-.9423923-.290172ZM351.9181967,147.0169034v-17.0557537h2.1769859c.9659395-.8707497,1.9342877-2.1287939,2.9002272-3.773881,1.9342877-3.483709,2.9026358-7.6689112,2.9026358-12.5558584v-10.1607123h27.2025447v26.4904517h4.714406v17.0557537h-9.791619v-7.9836044h-20.3112248v7.9836044h-9.7939558ZM364.6124156,129.9611497h12.6942189v-17.4182933h-7.6170059v1.088554c0,4.7900673-.8457947,8.9755123-2.5374202,12.5558584-.9188451,1.7417331-1.7646398,2.9997774-2.5397929,3.773881ZM407.5060759,128.0016033c1.7410926,1.7902989,3.8944952,2.685327,6.4578353,2.685327,2.5610033,0,4.7143701-.8950281,6.4554986-2.685327,1.7410926-1.7900561,2.6104345-4.0399993,2.6104345-6.7496047,0-2.7093626-.869342-4.9593148-2.6104345-6.7496047-1.7411285-1.7902899-3.8944952-2.685318-6.4554986-2.685318-2.5633401,0-4.7167428.8950281-6.4578353,2.685318s-2.6104705,4.0402421-2.6104705,6.7496047c0,2.7096054.8693779,4.9595486,2.6104705,6.7496047ZM400.6147199,134.3158422c-3.6753802-3.6289119-5.5130704-7.9833706-5.5130704-13.0638436,0-5.0802393,1.8376901-9.4349228,5.5130704-13.0638346,3.6753802-3.6286781,8.1259135-5.4432465,13.3491912-5.4432465,5.220941,0,9.6714383,1.8145683,13.3468185,5.4432465,3.6753802,3.6289119,5.5131063,7.9835954,5.5131063,13.0638346,0,5.0804731-1.8377261,9.4349317-5.5131063,13.0638436-3.6753802,3.6289029-8.1258776,5.4432375-13.3468185,5.4432375-5.2232777,0-9.673811-1.8143346-13.3491912-5.4432375ZM439.3405574,139.033299v-35.562601h8.7054988l10.5172331,13.4268508,10.5196417-13.4268508h8.7031261v35.562601h-9.791619v-20.6844228l-9.4311488,11.9752807-9.4287761-11.9752807v20.6844228h-9.7939558ZM506.4516934,139.033299v-4.3544497h-.362807c-.8693779,1.0642756-1.7646757,1.9109806-2.6835208,2.5401151-2.1274828,1.6934101-4.74029,2.5401151-7.8337482,2.5401151-3.2418956,0-5.8759133-.9433511-7.9067985-2.8305209-1.9837548-1.935259-2.9756502-4.3787281-2.9756502-7.3301824,0-2.9031313.9188451-5.370645,2.7565352-7.4027929,1.8871932-2.0804619,4.4740805-3.4110986,7.7630706-3.9916763l11.242919-2.0321479c-.1931951-1.3549151-.8222475-2.4677475-1.8848205-3.3384972-1.0649098-.9193065-2.4926625-1.3789597-4.2808854-1.3789597-2.2240803,0-4.1842879.6772238-5.8758774,2.0321389-.8693779.6289007-1.5714807,1.2820799-2.1039355,1.9595374l-5.802863-5.8062536c1.0649098-1.3063583,2.2970947-2.4434691,3.6989275-3.4110986,3.3856235-2.3223198,6.9879535-3.483709,10.8093984-3.483709,4.4481606,0,8.0999936,1.3549151,10.9531263,4.0642867,2.8531327,2.7095964,4.2808854,6.072381,4.2808854,10.0883447v22.1357502h-9.7939558ZM506.4516934,123.7923564v-.7257806l-7.9798129,1.4513274c-2.6599376.5322547-3.988756,1.7419669-3.988756,3.6289029,0,2.4191997,1.4512999,3.6289119,4.3515631,3.6289119,2.1769499,0,3.9910928-.750059,5.440056-2.2499432,1.4512999-1.4998932,2.1769499-3.4111076,2.1769499-5.7334184Z"/>
  <metadata>
    <sfw xmlns="http://ns.adobe.com/SaveForWeb/1.0/">
      <slices/>
      <sliceSourceBounds x="81" y="-42" width="566" height="174" bottomLeftOrigin="true"/>
    </sfw>
  </metadata>
  <metadata><?xpacket begin="﻿" id="W5M0MpCehiHzreSzNTczkc9d"?>
<x:xmpmeta xmlns:x="adobe:ns:meta/" x:xmptk="Adobe XMP Core 10.0-c000 1.000000, 0000/00/00-00:00:00        ">
   <rdf:RDF xmlns:rdf="http://www.w3.org/1999/02/22-rdf-syntax-ns#">
      <rdf:Description rdf:about=""
            xmlns:xmpMM="http://ns.adobe.com/xap/1.0/mm/"
            xmlns:illustrator="http://ns.adobe.com/illustrator/1.0/"
            xmlns:xmp="http://ns.adobe.com/xap/1.0/"
            xmlns:xmpGImg="http://ns.adobe.com/xap/1.0/g/img/"
            xmlns:xmpTPg="http://ns.adobe.com/xap/1.0/t/pg/"
            xmlns:stDim="http://ns.adobe.com/xap/1.0/sType/Dimensions#"
            xmlns:xmpG="http://ns.adobe.com/xap/1.0/g/"
            xmlns:dc="http://purl.org/dc/elements/1.1/">
         <xmpMM:RenditionClass>default</xmpMM:RenditionClass>
         <xmpMM:InstanceID>xmp.iid:bafe873d-e598-4d39-9c4b-9d641269ff2d</xmpMM:InstanceID>
         <illustrator:CreatorSubTool>Adobe Illustrator</illustrator:CreatorSubTool>
         <xmp:Thumbnails>
            <rdf:Alt>
               <rdf:li rdf:parseType="Resource">
                  <xmpGImg:width>256</xmpGImg:width>
                  <xmpGImg:height>80</xmpGImg:height>
                  <xmpGImg:format>JPEG</xmpGImg:format>
                  <xmpGImg:image>/9j/4AAQSkZJRgABAgEAAAAAAAD/7QAsUGhvdG9zaG9wIDMuMAA4QklNA+0AAAAAABAAAAAAAAEA&#xA;AQAAAAAAAQAB/+4ADkFkb2JlAGTAAAAAAf/bAIQABgQEBAUEBgUFBgkGBQYJCwgGBggLDAoKCwoK&#xA;DBAMDAwMDAwQDA4PEA8ODBMTFBQTExwbGxscHx8fHx8fHx8fHwEHBwcNDA0YEBAYGhURFRofHx8f&#xA;Hx8fHx8fHx8fHx8fHx8fHx8fHx8fHx8fHx8fHx8fHx8fHx8fHx8fHx8fHx8f/8AAEQgAUAEAAwER&#xA;AAIRAQMRAf/EAaIAAAAHAQEBAQEAAAAAAAAAAAQFAwIGAQAHCAkKCwEAAgIDAQEBAQEAAAAAAAAA&#xA;AQACAwQFBgcICQoLEAACAQMDAgQCBgcDBAIGAnMBAgMRBAAFIRIxQVEGE2EicYEUMpGhBxWxQiPB&#xA;UtHhMxZi8CRygvElQzRTkqKyY3PCNUQnk6OzNhdUZHTD0uIIJoMJChgZhJRFRqS0VtNVKBry4/PE&#xA;1OT0ZXWFlaW1xdXl9WZ2hpamtsbW5vY3R1dnd4eXp7fH1+f3OEhYaHiImKi4yNjo+Ck5SVlpeYmZ&#xA;qbnJ2en5KjpKWmp6ipqqusra6voRAAICAQIDBQUEBQYECAMDbQEAAhEDBCESMUEFURNhIgZxgZEy&#xA;obHwFMHR4SNCFVJicvEzJDRDghaSUyWiY7LCB3PSNeJEgxdUkwgJChgZJjZFGidkdFU38qOzwygp&#xA;0+PzhJSktMTU5PRldYWVpbXF1eX1RlZmdoaWprbG1ub2R1dnd4eXp7fH1+f3OEhYaHiImKi4yNjo&#xA;+DlJWWl5iZmpucnZ6fkqOkpaanqKmqq6ytrq+v/aAAwDAQACEQMRAD8A5V+bH5r+YfPnmG7nnu5F&#xA;0NJWXTNNVisMcKmiMybBpGG7Md6+AoMVYJirsVdirsVdirsVdirsVdirsVdirsVdirsVdirsVdir&#xA;sVdiq6OSSKRZImKSIQyOpIYEdCCMVfXX/OK/5qa35mstQ8ta7cPe3mlRpPZXspLSvbs3BkkY7sY2&#xA;40Y70Ptir33FXYq7FXYq7FXYq7FXYq7FXYq/MbFXvn/OIuiaNqvmPX49UsLa/jjs4mjS6hSYKTLQ&#xA;lQ4ahxVAea/yov8Azl/zkBr3l3QLaOx022mhkvJ44wkFrAYYuTBVCryYk8UH2j7VIVejfm3q35Z/&#xA;lP5QtfLOiaLp975mkg4Wr3VvBcTRIa1u7lnRuTFq8VOxPbiKYq+VVs9QuazpbyyhySXRCVJrv9kU&#xA;xVTntbqDj68Lxcq8eala060qMVUwCSABUnYAYqirzSNWso1kvbKe2jc0R5onjBNK0BYCuKqENvPO&#xA;xSGNpXAqVRSxp40GKq1tpOqXMzwW1nPPNGKyRRxu7KPFlUEjFVE284nMBjYThuBiKnny6U49a4qr&#xA;fovU/wDljn/5Fv8A0xVZJYX0Sc5baVE6cmRgN+m5GKtTWl3AAZ4ZIg2wLqVr94xVqO0upY2ljhd4&#xA;1rydVJUUFTUgYq3FaXcsZkihkkjXZnVSwFBXcgYqqQ6Tqk1q13DZzyWiV53CRu0Y49auBxFMVQuK&#xA;ou00fVryJprSyuLmJDR5IondQRvuVBGKoQgg0OxGKuxV7/8A84bf8p1rf/bLP/URFir66xV2KuxV&#xA;2KuxV2KuxV2KuxV2KvzGxV9E/wDOGX/KTeY/+YKH/k7ir6Zs18s6brdxZWz28Gtavy1C5gDD6xOI&#xA;wkJmKk8iqgKo7fjir4e/PTyn5l8u/mLqS67cy37X7td2epy7meBzROgABjpwKgUFNhxpir6X/wCc&#xA;cZr+H8h7WbTrdbvUIv0g9nau4jWWZZpDHGXOyB2oOXbFWVPczav5E1aT8ztBtdJsollN1am5S8jN&#xA;ukYb1hIoTg9SQtDUEVB3xV8vf843+Y7XRvNd+YfKc/mO+kgZtPntkEtxbMlSAS37uNJdlaTYj3Bp&#xA;ir6l8sXnmbzZpN/Zee/J8Wj2kyhEtZbqG+SeN68g6oBwK0HX8KYq8M/5x30K38v/APOQXnDRLVi1&#xA;rp1nf29uzGrenHf24TkfHjSuKss8/wD/ADkh5c8h+db7QtL8vfXpRMsmu3yyi3LTsig8RwcyMicR&#xA;ViOnEbb4qifzej8rXHlry/8AnVpFms91os9jqHUQPdWksqIIJWCvR0eRaEg8fiGKsj/JX86v+Vm/&#xA;pn/cN+iP0R9W/wCPn6z6n1n1f+KoePH0fetcVeMfmj/zkZ/iyzu/Jv8Ah76lTUIU+v8A1z1f95bp&#xA;Wr6XoR/a4fz7Yq9M/wCckfJOs+dD5R8v6SlZ7m/mMsxBKQwrEPUmkp+yo+80A3IxVmFz5S0Xyl+U&#xA;Wr+X9HQJa2Wk3isxpzklNs7PLIR+25PI/htTFXnX/OJgsj+UWui+p9SOqXYuq1A9L6lbc603+zXp&#xA;iqj5M/5ym8r3nmmx8rW/l46X5dmlSx0y6SRapyIjh526oFRGJAPFzx98VYJ/zkt5E0Dyj5+0TXrH&#xA;To5dN1pmmu9HUmOKSa1eP1lX06FFmWVfs96nFXuXl/zx5zubjS7Py/8AlxcWHlb04VmnvJrfTmt1&#xA;cAuIrQjkyxV7U5e2KvJf+cwfJmi2M+j+Z7GBLa+1CSW21H01CiZlUPHKwFPjHxBm6kU8MVfNuKvf&#xA;/wDnDb/lOtb/AO2Wf+oiLFX11irsVdirsVdirsVdirsVdirsVfmNir6J/wCcMv8AlJvMf/MFD/yd&#xA;xVif5xebte8vf85B6rrmnXLLfaXcQfVS5LKIxbx1iIr/AHbBmDKPE4q9783aHoH56/lNbappPFNX&#xA;jRptNLEcoLxRSa0lbb4XI4n/AGL9KYq3+Qej6nL+RX6GWeTSdUc6nZrchT6trcGaWP1OFUPOJ96V&#xA;G464qyPypol/5C8v6nN5386Nr1i5Di61KNYEgQKQ6AvJMz8/5eXbYdaqsG/5xh1HyteaF5sttBeK&#xA;y1GfVbmeJOC+qlpIoFm3pk7xx/EAvQGvjirNvy38s+YdB1O/TzR5zl8y67dxJKLAt6cVtCHI9RIA&#xA;xpzbblxXpQd8VeW/k7/61D5+/wCMGof9R9tiqeeff+cc/KXn7zrf63p3mE2F0JETXbCKJLgiYIu4&#xA;+OMws6UPxK1euKpT/wA5Iea/K3lb8tbX8sdGkWS6dLaF7YMHeC0tWWRWlYf7skeNdup3PzVS/wD5&#xA;wq/6bL/t2/8AY3irwDVP+U6vP+2pJ/1EHFX3P+bP5l6Z+X/lSbVrjjLqEtYdKsyd5pyNq9+Cfac+&#xA;HuRirAfyp1nUtb/5x/8AMuranO1zf3q6xNcTN1Zmib7gOgHYYqhP+cS2s1/KLXWvqfUhqt0brkCR&#xA;6QsrbnUDf7NcVW+T/wDnF3yVbeZrLzZZ+YH1Py/DKt9ptkqIVPBucXO6V2EiKw7IK98VSzzr+aHk&#xA;vXv+cg/JlnJcwT6D5cluElv2IMH1+4QhCHPwlI5oofjrStT0FcVem/mF5Y8y32u22sv53l8ueTbG&#xA;JGv7K2/cySOrkt/pCsjASKVXv7CpxV53/wA5m/8AKMeXf+Y2b/k1ir5PxVnv5J/mQnkDzxDq9zG0&#xA;umXMTWepRpu4hkZW5oNgWR0VvcVHfFX2rpn5n/l1qVlFe2nmTTWglFV9S5iicezxyMrofZgDiqK/&#xA;x75F/wCpj0v/AKTbf/mvFXf498i/9THpf/Sbb/8ANeKu/wAe+Rf+pj0v/pNt/wDmvFXf498i/wDU&#xA;x6X/ANJtv/zXirv8e+Rf+pj0v/pNt/8AmvFXf498i/8AUx6X/wBJtv8A814q7/HvkX/qY9L/AOk2&#xA;3/5rxV3+PfIv/Ux6X/0m2/8AzXiqbWV/Y38AuLG5iurdtlmgdZEP+yUkYq/M3FXYq7FXYq7FXYqq&#xA;W9xcW8yzW8rwzIapJGxVgfYihxVqaaaeVpZpGllc1eRyWYnxJO5xV7J/zinr+haJ+Yeo3etaja6Z&#xA;avpE0SXF5NHbxtIbm2YIHkZQWIUmntirGvzq1+Kf83fMOp6HqKy288sfo3tjMGR1+rxqeMkTUYVB&#xA;BocVefMzMxZiSxNSTuSTirWKuxV2KuxV9Nf847ebvKmk/k15l0/VNasLC/nu714LS6uYYZnV7GBF&#xA;KRyMrMGZSBQdcVfNkd/fRW0lrHcypay7ywK7CNv9ZQaHFVDFVea/vpreK2muZZLaD+5hd2ZE/wBV&#xA;SaD6MVUMVdirsVdirsVdirsVdirsVdirsVdirLfyz/MXW/Ivme11XT53Fp6ijUbIMfSuIK0dWXpy&#xA;Ck8Gp8J3xViWKuxVmPnv8qPN3kez06716OBIdU5fVDDKJCeCqx5ADbZxirDsVTzQ/I/nDXrOa90X&#xA;R7vUbS3YpPPbxNIiMFDEMVGx4muKrPL3k7zV5k+sfoDSbrVPqvD6z9ViaX0/U5cOXEGnLg1Pliq3&#xA;SvKPmjV9VuNI0vS7m81O0DtdWcMbPLGInEbl1AqOLsFPviqrZeR/OF9rVzoVno93PrFkpe70+OJm&#xA;miVSqkugFQAXUfTiqGk8s+YYtdHl+TTrhdbMixDTTG3r+o4DKvp05VINcVRHmDyT5u8uRwya9pF1&#xA;piXBKwNdRNFzKgFgvKlaVFcVTTQvyj/MvXbBdQ0ry7eXFk684rgp6aSL4xmQpzH+rXFWOavo2raN&#xA;fyafq1nNYX0P95bXCNHIK9DxYA0PY98VTbRPy789a7YjUNG0G91CyZmQXNvC8iFl+0OSilRiqNf8&#xA;n/zSRGd/KupqigszG2koANyemKsb0rSNV1e+jsNKs5r+9lr6dtbRtLI1NzRUBO3fFWRa9+Uv5k6D&#xA;p7ajq3l68trFF5yXHD1ERfGQxl+A/wBamKsSxVP7/wAgedtP0Ya3e6JeW+jsscg1CSFxAUmoI250&#xA;40fkKeNcVQvl/wAreZPMVxLb6Fptxqc8KepLHaxtIypWnIhQaCpxVCappWpaTfzadqVtJaX1uQs9&#xA;tKpV0JANGU9DQ4qm2hfl9541+yN9omh3uo2YcxG4toXkTmoBK8lHUchiqMuvyl/M21tpbq58salD&#xA;bwI0s0r28gVEQcmZiRsABXFWM2dnd3t1FaWcElzdTMEht4VaSR2PRVRQST8sVZfe/kr+a1lY/Xrj&#xA;yxfC3ClmKx+o6qu5LRoWdfpXFWKadpmo6nfw6fp9tJdX1w3CC2iUtI7fyqo3JxVF+YPKvmTy7cRW&#xA;+u6Zc6ZPMnqQx3UbRF0rSq8gK7jFVfy/5H84eYoZZ9C0a81OGBgk0ttC8iqxFQpZRStO2KpbY6Vq&#xA;d/qCadY2k11qErGOO0hRpJWYdQEUFidsVZNrP5P/AJnaNpranqXly8gsY1LyzBA4jQdWkCFigFNy&#xA;wGKsPxV2KuxV2KvdPyX/ACZ/LTzj5PfV/MmuXOnait3LALeG6tYF9NFQq3CaKRqksd64q+gfzT/L&#xA;HyN5y07SLXzLqs+nQabz+pPDcW8Bk5qityM0cgagQfZpir42/NXyxoXlfz7qmhaFdPe6VZ+h9Wup&#xA;ZI5Xf1beOV6vEqIaO7DZcVfQv/OJX/ksvM3/ADGy/wDUJHiqV/8AOFX/AE2X/bt/7G8VQv8Azjx/&#xA;60P52/4w6p/3U4MVT38rv/WqfPn/ADBXP/URZ4q9O078uNK0Hzd5m/MB4G1TXb8M9pDGo5xQxQKv&#xA;owhiB6sxj3Y06hdhWqr54/Ly/u/zh/PeK/8ANih7Kwjlu4NIaphjjt2Aig4t1AkcNJUfEQa9aYqz&#xA;b86P+ck/MnlDzxN5a8vWFoYdMEX1ya8SRzI8kay8Ywjx8UCOBXqT02xVMfzettF/Mn8hIfPQsxba&#xA;naW63tqxoXjpKIrmAvQFozRqe4BxVW/IHVJ9C/5x3vtbRFL2CanfQhwWVvq6sw5BSppyjodxiqef&#xA;kt+aGv8A5h+SNc1PWre0t7i0mlto1skkRCn1dXqwlkmNav44q8M/5xi1D8wLLWNX/wALaDb6tDPA&#xA;I7q7umFulvIKmEm4oWKlvtRLu1K7Urir6h8kQfmObO5i8+SaTcPN/cJpizUCtXmkvrDiwoQBQfOv&#xA;XFXwr+ZOkWWj/mB5i0uxT07Kz1G5itoh0SNZW4oPZRtir6X/ACOv7f8AMb8itT8l37hrvT4pNN5N&#xA;uVjkUyWUv/PNhxX/AFMVWf8AON2hReRfyz8w+b9ciNvNJJO86tQMLfTQ6cBX9ozCVad9sVfKuu6x&#xA;e63rV9rF83K71CeS5nO9OcrFiBXsK0GKvrP/AJx8u7ny3/zj3qWvMFUxHUdRtvWB9NvQj4rWhBZS&#xA;8BGxxVPvKHn3WPPX5Ga7r+rw28F49pqcJjtFdIuMUDAGkjytXx+LFWFf84reW9F0byLrHn+9h9W9&#xA;DXCRyhQzx2lpGHkEfg0jVr40GKpb5J/5yw8zat59sdO1TTLSPQ9Uu0tIo4BJ9Yg9ZxHGxkLESULD&#xA;n8Ar2p0xVOvzC8maVon/ADkZ5F1rT4lt/wBPXDtdxIAqm4t6B5aDoXWVeXiRXqTir0v81vy/8tfm&#xA;LpMvlq7uEt9ctI1vdPuAA0sHqMyB+NQWikMZV1r4dwuKpz5F8u+WfKujR+VdCK8dKVPrYqDKZJhy&#xA;9WYj9uSnL5UptTFXyv8A849al55sPPmut5W0GHWlmSSO+knZYFt/jYwt9ZIJQM/2kFeYHT4ahV9O&#xA;+RovzRH1r/HMukSpMA1pFpYn5R1+0khmADLQ9vvOKviP83dI0/R/zM8yadp8QgsoL2T0IFoFRX+P&#xA;ioHRV5UA8MVYhirsVdirsVexfnt+cXlnz/o/l6y0a1vbeXSfV+steJEit6iRqOHpyyk7xnqBirx3&#xA;FX1B/wA4rea/J+k+Rtbsdd1yw0uW5v2KxXl1DbyNG1vGvJVlZSRWorirPPy2tPyI/Lz9I/oDzjp7&#xA;fpT0frP1rVbKT/ef1OHHiUp/fNXFVnlHTvyF8qebtS81aX5x09tT1VZ0ulm1WyeIC4mWd+CgqR8c&#xA;Ypv0xVgH5c+bvKlp/wA5KedNYu9asLfSbq0uEtdRluYUt5Wae1IEczMEYkIx2PY4qjX/AOcjH038&#xA;9r2zu9TgvPIk3o2ME1u6SW8NUVxcrIhYNSR2WQ1+z/qgYqlXn3X/ACj5B/Nmw/Mfyfqunavp+ps8&#xA;Ov6TYXlvNKGlH72RUjdiFkpzqdvUG5+IYqzTzJ5e/wCcd/zUurbzPc6/Da3hVFuPSvIbOaRUFFS5&#xA;hnBYFR8PIAGnegGKpR+Yf5m/lrexaF+U/l27i/w9d3NpZaxqFtIq29vYxyKfTiuHqrOxUFn3FK1J&#xA;JNFUV+cHm3yH5C/J5/Ivli8huLi9haztbaKZZ3SGVy9xNMyk05hmArSrNtsDRVIP+cYfN3lTRvy8&#xA;8w2msa1YabdT3kjw293cwwSOptkUFUkZSRUU2xVX/wCcWfPnkyz8map5X1PU4dH1SS6luEmmlS3M&#xA;sU0KRhopXovqR+mduo2PjRVmP5cv+SvkPV9Qt4fOkGo65eRK99qmo38DL6aueESSllj5VapUEt3N&#xA;NsVfLH5rXtnffmV5mvLKeO6tLjUbiSC4hdZI3RpCQyOpKsD4jFWZ/wDOL3m2fQ/zQttP+JrPXo2s&#xA;p0UE0cAyQyUH8rLxr2DHFXsP/OWvm2LR/I1r5ZsysVxr1wZLhEoP9HgYSyE07yTMm/f4sVfLXkrS&#xA;LTWvOWg6PeFhaalqNpZ3BjIV/TnnSN+JINDxbbbFX3F5x0T8tLPyVB5H1jWLfy3oc0SwwQG8gs5J&#xA;IYGViqtPUsC1C5G57nfFVH8v9E/K+38p3nkjyrr1vqtjNFcG5jgvbe6uFjuh6cjVh+yPioCV64q8&#xA;j/Kz8yvKv5b+cvNH5ca1I0XloalOum3twPUEbVELJcED7EiovxUoDWuxqFWU6R5A/wCcbPKeur5x&#xA;g160P1ZhcWVtJqEE9vC/VWhiSsrsOqgs3iN8Ved6p+cel+cfz/8ALGq+slh5Y0acQ2tzdssK8SCZ&#xA;J5S5ATm1AKnoB3riqN/Pz81BpP5p+X/M3knWbS/ls9O9KZ7WZLmBw08haCb0nIIYUPGoPQihocVT&#xA;r/nGP8xdGjsfNF/5u8w2drqmpaglw8moXUMEkpMfxMokZPhHT4dh0xVR/wCcYPzA8maZa+YtC1TU&#xA;LfTb+71B7u2uZ5FiSaFkCcUlYhKoULAf5W1eyrL/ACGn5LeRfNF4587R6r5j1G3d7jVdTv4JFSAS&#xA;ofR9aqxh3LK3EsWbiTsMVfMf5zX9jqH5o+ZL2wuYruznu2eC5gdZYnXiu6OhKsPkcVYZirsVdirs&#xA;VdirsVdirsVdirsVdirsVdirsVdirsVdirsVdir6S/JL8zvyN8peTNOuNXhjh852aXK3F0li8ly4&#xA;kuJGRUnVCtTCyruw22xV5F+bn5k3f5g+cZ9bkja3so0FtptoxBMduhJHKm3NmYs3zp0AxVi2jate&#xA;aPrFjq9kVF5p1xFd2xcclEsDiRKjuOSjbFWRfmD+aPmvz9NZTeYZIZH09ZEt/QiEVBKVLVoTX7Ax&#xA;VR8gfmP5m8ialcaj5feJLm6h+rymaMSjhyD7A96qMVSbX9bvtd1q+1nUCrXuoTPcXJReKl5Dyai9&#xA;hXFUBirsVdirsVdirsVdirsVdir2782v+cbPOOjeYLm88rafJq+gXcjS26WwDTW/Nq+i8Q+Iha/C&#xA;yginWhxVgX/KnPzV/wCpU1T/AKRpP6Yq7/lTn5q/9Spqn/SNJ/TFXf8AKnPzV/6lTVP+kaT+mKu/&#xA;5U5+av8A1Kmqf9I0n9MVd/ypz81f+pU1T/pGk/pirv8AlTn5q/8AUqap/wBI0n9MVd/ypz81f+pU&#xA;1T/pGk/pirv+VOfmr/1Kmqf9I0n9MVd/ypz81f8AqVNU/wCkaT+mKu/5U5+av/Uqap/0jSf0xV3/&#xA;ACpz81f+pU1T/pGk/pirv+VOfmr/ANSpqn/SNJ/TFXf8qc/NX/qVNU/6RpP6Yq7/AJU5+av/AFKm&#xA;qf8ASNJ/TFXf8qc/NX/qVNU/6RpP6Yq7/lTn5q/9Spqn/SNJ/TFXf8qc/NX/AKlTVP8ApGk/pirv&#xA;+VOfmr/1Kmqf9I0n9MVd/wAqc/NX/qVNU/6RpP6Yq7/lTn5q/wDUqap/0jSf0xV3/KnPzV/6lTVP&#xA;+kaT+mKu/wCVOfmr/wBSpqn/AEjSf0xV3/KnPzV/6lTVP+kaT+mKu/5U5+av/Uqap/0jSf0xV3/K&#xA;nPzV/wCpU1T/AKRpP6Yq7/lTn5q/9Spqn/SNJ/TFXf8AKnPzV/6lTVP+kaT+mKu/5U5+av8A1Kmq&#xA;f9I0n9MVd/ypz81f+pU1T/pGk/pirv8AlTn5q/8AUqap/wBI0n9MVZ7+Uv8AzjZ5x1nzBbXnmnT5&#xA;NI0C0kWW4S5AWa44NX0UiPxANT4mYAU6VOKv/9k=</xmpGImg:image>
               </rdf:li>
            </rdf:Alt>
         </xmp:Thumbnails>
         <xmpTPg:MaxPageSize rdf:parseType="Resource">
            <stDim:w>566.000000</stDim:w>
            <stDim:h>174.000000</stDim:h>
            <stDim:unit>Pixels</stDim:unit>
         </xmpTPg:MaxPageSize>
         <xmpTPg:NPages>1</xmpTPg:NPages>
         <xmpTPg:HasVisibleTransparency>False</xmpTPg:HasVisibleTransparency>
         <xmpTPg:HasVisibleOverprint>False</xmpTPg:HasVisibleOverprint>
         <xmpTPg:PlateNames>
            <rdf:Seq>
               <rdf:li>Cyan</rdf:li>
               <rdf:li>Magenta</rdf:li>
               <rdf:li>Yellow</rdf:li>
               <rdf:li>Black</rdf:li>
            </rdf:Seq>
         </xmpTPg:PlateNames>
         <xmpTPg:SwatchGroups>
            <rdf:Seq>
               <rdf:li rdf:parseType="Resource">
                  <xmpG:groupName>Default Swatch Group</xmpG:groupName>
                  <xmpG:groupType>0</xmpG:groupType>
               </rdf:li>
            </rdf:Seq>
         </xmpTPg:SwatchGroups>
         <dc:format>image/svg+xml</dc:format>
      </rdf:Description>
   </rdf:RDF>
</x:xmpmeta>
                                                                                                    
                                                                                                    
                                                                                                    
                                                                                                    
                                                                                                    
                                                                                                    
                                                                                                    
                                                                                                    
                                                                                                    
                                                                                                    
                                                                                                    
                                                                                                    
                                                                                                    
                                                                                                    
                                                                                                    
                                                                                                    
                                                                                                    
                                                                                                    
                                                                                                    
                                                                                                    
                           
<?xpacket end="w"?>
  </metadata>
</svg>