<svg width="230" height="170" viewBox="0 0 230 170" fill="none" xmlns="http://www.w3.org/2000/svg">
<path d="M30.1555 33.9012L25.7596 34.1628V49.2282L18.9979 49.5116V34.5682L14.6324 34.8297L8.13213 49.9649L0.520874 50.2832L9.07754 30.7669L1.04804 13.9752L8.01014 13.3736L14.5104 27.7242L18.9979 27.4147V12.419L25.7596 11.8348V26.9526L30.2427 26.6475L37.1481 10.8496L44.7507 10.1914L36.0502 29.0102L45.3345 48.4174L37.0174 48.7662L30.1599 33.9056L30.1555 33.9012Z" fill="white"/>
<path d="M48.8501 9.83079L56.2043 9.19435V34.4473L71.8712 7.83863L79.1905 7.20654V47.0019L71.4878 47.3244V21.6835L55.834 47.9783L48.8501 48.2704V9.83079Z" fill="white"/>
<path d="M119.322 33.6178C119.322 40.8672 114.308 45.5359 105.115 45.9195L87.7097 46.6475V6.46419L104.139 5.03873C112.53 4.31074 117.575 7.72837 117.575 14.6116C117.575 18.8226 115.623 22.0964 112.373 24.0842C116.839 25.2742 119.322 28.5654 119.322 33.6134V33.6178ZM95.7479 22.5628L103.42 22.0397C107.023 21.7956 108.936 19.9603 108.936 16.6691C108.936 13.3779 107.019 11.826 103.42 12.1094L95.7479 12.7153V22.5584V22.5628ZM110.705 33.3214C110.705 29.8471 108.679 28.3213 104.806 28.5567L95.7479 29.106V39.3589L104.806 38.9099C108.679 38.7181 110.705 36.909 110.705 33.3214Z" fill="white"/>
<path d="M126.165 3.13428L134.913 2.37577V29.9304L153.599 0.758504L162.352 0V43.5312L153.146 43.9148V15.8894L134.477 44.6951L126.165 45.0438V3.13428Z" fill="white"/>
<path d="M28.9439 132.431C28.9439 140.796 23.9206 145.626 16.0131 145.038L10.1489 144.602V154.72L3.51355 154.144V117.749L16.0087 118.272C23.9162 118.603 28.9396 124.013 28.9396 132.431H28.9439ZM21.9165 132.021C21.9165 127.928 19.7991 125.426 15.634 125.216L10.1489 124.942V137.679L15.634 138.041C19.7947 138.316 21.9165 136.062 21.9165 132.021Z" fill="white"/>
<path d="M33.5884 119L40.6812 119.297V144.092L55.7817 119.925L62.8353 120.217V159.28L55.4157 158.639V133.464L40.3283 157.331L33.5927 156.747V119H33.5884Z" fill="white"/>
<path d="M97.313 129.315L86.1292 128.753V161.299L78.3088 160.623V128.365L67.6348 127.829V120.422L97.3173 121.66V129.32L97.313 129.315Z" fill="white"/>
<path d="M136.29 165.65L136.233 140.293L125.036 160.253L121.185 159.94L110.341 139.22V163.41L102.499 162.729V121.888L109.404 122.176L123.211 148.71L137.222 123.335L144.668 123.645L144.724 166.387L136.29 165.655V165.65Z" fill="white"/>
<path d="M186.588 161.713V170L154.571 167.228V124.045L185.795 125.349V133.627L163.864 132.528V141.996L183.181 143.152V151.155L163.864 149.843V159.935L186.588 161.713Z" fill="white"/>
<path d="M202.945 93.6836L200.867 93.64C198.288 92.7987 197.695 91.0071 197.099 88.5441C196.449 85.8763 196.079 83.2259 195.774 80.5013L195.609 79.0192L195.491 77.415L195.304 75.7236L193.247 81.7481L191.757 86.6435L189.871 93.2869L188.999 96.4387C188.507 98.2172 188.167 99.9914 187.431 101.678C186.612 102.716 186.416 102.733 185.431 102.829C185.261 102.847 184.913 102.489 184.895 102.315L184.786 101.125C184.603 101.543 184.547 101.953 184.229 102.188C184.006 102.354 183.758 102.393 183.553 102.289C183.349 102.184 183.296 101.853 183.314 101.526C182.747 101.683 181.697 101.356 181.419 100.85C181.018 100.131 180.891 99.2591 180.992 98.3611C181.205 96.4081 181.758 94.5598 182.268 92.6548L183.501 88.0559C184.961 82.5981 186.795 77.3322 188.629 71.9616L189.879 68.2912L192.437 61.5518C192.96 60.1743 194.014 59.3243 195.539 59.6294C196.014 59.0409 196.772 58.9319 197.321 59.4114C197.508 59.5291 197.809 59.6773 198.018 59.6468C198.88 59.5335 199.334 60.0784 199.909 60.5318C200.384 60.9067 200.819 61.1508 201.133 61.7611C201.852 63.1691 202.048 64.7515 202.209 66.3688L202.915 73.4961L203.154 76.2424L203.394 78.1125L203.533 79.8387L203.673 81.5824L208.465 74.6338L220.734 57.4847L222.281 55.6538C222.721 55.1307 223.431 54.5204 224.093 54.5771L225.248 54.673C225.335 54.6817 225.496 54.9171 225.566 54.8691L225.923 54.625C226.79 54.224 227.674 54.8909 227.844 55.8238C230.829 56.4602 229.887 59.4768 229.757 61.6913L229.674 63.0645L228.071 78.082L227.67 82.075L227.522 84.1151L227.404 85.6365L227.125 88.8187L227.025 90.8894L226.89 92.1579L226.785 93.9583L226.541 96.6174L226.437 98.6749C226.398 99.4683 226.032 100.257 225.261 100.536C225.217 101.051 225.165 101.487 224.943 101.914C224.651 102.481 223.771 102.59 223.322 102.093C223.222 101.914 223.291 101.609 223.069 101.439C222.176 101.822 222.098 101.195 221.396 100.955C220.873 101.583 220.011 101.295 219.588 100.693C219.013 99.8737 218.468 98.8493 218.481 97.7987L218.521 94.1893L218.599 92.0882L218.73 89.8039L218.856 87.7769L218.987 85.7586L219.109 84.1108L219.231 82.5894L219.344 81.0593L219.575 78.9102L219.836 76.3688L220.433 70.7149L217.079 75.51L213.611 80.6234L206.087 91.8789C205.342 92.9949 204.448 93.8885 202.945 93.688V93.6836Z" fill="#FEFEFE"/>
<path d="M67.2127 91.4417C68.071 90.9447 68.7768 90.3824 69.5828 89.8767L71.0205 88.9743C71.2427 88.8348 71.4605 88.8654 71.6566 89.0136C71.8352 89.1487 71.8439 89.3318 71.7655 89.6369C71.9834 89.6021 72.1446 89.6021 72.2448 89.6369C72.3232 89.6675 72.3188 89.929 72.345 90.0336C72.4408 90.0729 72.5802 89.977 72.6456 89.9552C72.724 89.9334 72.846 90.0423 72.8591 90.1208C72.9331 90.5131 72.2317 90.7703 72.3755 91.2281C72.724 90.9316 73.1248 90.6178 73.4385 90.9186C73.6346 91.1016 73.4647 91.5855 73.3209 91.7948C73.6041 91.7381 74.0092 91.8645 73.957 92.2394C73.9178 92.5009 73.5387 92.7363 73.5736 92.9587C73.6868 93.691 73.212 94.1923 72.7632 94.6108C71.1599 96.1191 69.6133 97.6012 67.8444 98.7957C63.7578 101.551 59.0351 103.748 54.4387 104.293L53.624 104.354L51.3715 104.288C49.106 104.035 46.932 103.312 45.0455 101.79C42.8933 100.055 41.3684 97.6448 40.5014 94.7503C39.739 92.2002 39.7172 89.7154 40.2008 87.0824C40.4666 85.6483 40.8064 84.3405 41.3379 83.0022C42.3269 80.4957 43.6339 78.2899 45.1849 76.228L47.0061 73.9961C47.9036 72.8975 50.2562 70.8836 51.511 69.9507C52.6611 69.0963 53.8157 68.4468 55.0661 67.7842C57.2706 66.6203 59.5143 65.8007 61.9454 65.5435L64.7686 65.4781C65.1737 65.4694 65.531 65.622 65.9275 65.7048C66.6638 65.853 67.4741 65.9446 68.0797 66.4415C68.5502 66.8251 68.9815 66.8295 69.5349 66.7903C69.9357 66.7597 70.3147 67.2741 70.6284 67.5008C71.3865 68.0501 71.9267 68.7737 72.3406 69.6935C72.663 70.1643 72.7806 70.7746 72.5715 71.3674C72.6935 73.3247 71.8309 75.0946 70.4498 76.1408C70.2232 76.3152 70.0577 76.4329 69.7876 76.3805C69.5479 76.3326 69.2909 76.2105 69.2299 75.8008C68.8944 75.8008 68.3498 75.9969 67.9751 75.779C67.3957 75.4346 66.9644 74.7764 66.8772 74.0614C67.0994 73.4032 67.0123 72.806 66.5984 72.309C65.4351 71.9734 64.2414 71.6334 63.0389 71.8775C61.4313 72.2001 59.8759 72.5444 58.4338 73.425L55.3449 75.2995C50.7659 78.5471 46.444 84.0964 45.9169 90.596C45.8602 91.2847 45.9605 91.8863 46.065 92.5445C46.3308 94.2446 47.2544 95.6527 48.5614 96.4068C49.5417 96.9735 50.5917 97.1304 51.6591 97.2787C52.0773 97.3353 52.4128 97.2917 52.8441 97.2743L53.868 97.2351C55.4974 96.9735 57.044 96.5812 58.6081 95.9665C59.7714 95.5088 60.8823 95.1121 61.9977 94.4626L67.2127 91.4286V91.4417Z" fill="#FEFEFE"/>
<path d="M81.0051 106.075C80.4083 106.328 79.8767 105.853 79.6981 105.19C79.4367 104.223 78.378 104.606 77.877 103.669L76.753 101.568C76.4959 101.088 76.2606 100.517 76.2868 99.92C76.3303 99.0351 76.7399 98.1938 77.3455 97.7055L78.1645 97.3525L78.6656 93.1327L79.3714 87.3698C79.0533 87.1737 78.866 86.7203 79.001 86.2844C79.5195 84.6017 78.9793 83.4814 79.9203 82.7709C80.173 82.5791 80.0684 82.0995 80.1207 81.8118L80.7655 78.0585C81.0313 76.5023 81.2666 75.0114 81.6587 73.416C81.0487 73.6427 80.5346 73.8955 79.99 73.7386C79.4149 73.5729 78.8921 73.2547 78.7396 72.5659C78.2168 72.1518 78.0861 71.4805 78.0077 70.783C77.9554 70.2948 77.8857 69.824 78.2343 69.4098L79.0185 68.4726C80.2079 67.4526 81.541 66.79 82.9396 66.1927C83.1617 65.1117 83.8545 64.5188 84.7389 64.2529C85.5057 64.0218 86.2245 64.1483 86.8606 64.7542C89.1 64.1526 91.3307 63.6077 93.6615 63.3375L97.1818 63.2546C97.9486 63.2372 98.6413 63.4595 99.395 63.5859C101.007 63.8562 102.589 64.2572 103.97 65.2206C104.741 65.7568 105.311 66.4325 105.874 67.2128C107.011 68.7996 107.333 70.8963 106.88 72.919C106.139 76.0751 103.508 78.5468 100.963 80.212C102.824 80.3994 104.488 80.9531 106.096 81.9644C106.993 82.5311 107.721 83.3245 108.387 84.2094C109.054 85.0943 109.459 86.2146 109.694 87.3873C109.847 88.1283 109.786 88.7822 109.694 89.5451C109.655 89.9069 109.742 90.2513 109.259 90.3777C109.368 90.4213 109.511 90.6262 109.455 90.7352C109.263 91.0882 109.363 91.5111 109.228 91.8598L108.745 93.1196C107.228 96.0447 104.314 98.451 101.739 100.164C97.9573 102.684 91.7271 104.597 87.4009 105.221L86.0721 105.321C85.5144 105.36 85.1266 105.36 84.5864 105.212C83.9416 105.033 83.2402 105.121 82.5387 104.868C82.4472 105.766 81.7109 106.337 80.9964 106.08L81.0051 106.075ZM93.2999 77.5398C94.8422 76.6636 96.3104 75.9138 97.6567 74.7455C98.7676 73.7821 99.7218 72.7229 100.279 71.2494C99.8786 70.8048 99.4212 70.4604 98.8722 70.3602L97.1426 70.0463L94.1538 70.1073C92.1323 70.3078 90.2284 70.7786 88.2809 71.3977C88.1415 73.0106 87.8496 74.5232 87.5708 76.1056L86.8737 80.0681C87.5272 80.0158 88.0892 79.7368 88.7166 79.5363C90.3025 79.0219 91.7751 78.3986 93.2999 77.5354V77.5398ZM96.7897 94.702L98.5149 93.6079C99.5606 92.9453 100.541 92.1911 101.43 91.2626C102.031 90.6305 102.467 89.9723 102.815 89.1179C103.116 88.3812 102.867 87.4788 102.148 87.0996C100.815 86.3977 99.3776 86.0664 97.9006 85.9269H95.6918L94.6026 85.988C92.2761 86.2844 90.028 86.8031 87.7799 87.3873L85.815 87.9017L84.325 98.5643C84.643 98.73 84.9785 98.6123 85.314 98.5469L88.0021 98.0412C91.0257 97.3176 93.9186 96.2321 96.7897 94.6977V94.702Z" fill="#FEFEFE"/>
<path d="M134.542 99.3461C131.967 101.452 128.534 103.051 125.354 103.287C123.367 103.431 121.372 102.851 119.563 101.922C117.145 100.68 114.897 98.265 113.847 95.5754C111.856 90.4664 112.484 85.2484 114.427 80.2222C115.512 77.4192 116.893 74.8342 118.609 72.4628L119.638 71.1812C120.104 70.6014 120.583 70.1045 121.084 69.5596L121.973 68.5918L124.378 66.4863C124.447 65.7496 124.979 65.4314 125.567 65.1524L128.199 63.9187C129.183 63.618 130.203 63.4697 131.17 63.6746L132.629 64.3285C132.725 64.6206 132.886 64.8996 133.239 64.8255C133.832 64.699 134.363 65.0042 134.912 65.135C136.023 65.4052 136.925 65.9109 137.792 66.7174L138.463 67.3407C139.104 67.7331 139.491 68.2562 139.966 68.849C140.859 69.9606 141.535 71.2161 142.11 72.5674C142.445 73.3565 142.859 74.0975 143.007 74.9737L143.643 78.6965C143.709 79.9171 143.778 81.0984 143.635 82.3146C143.081 86.9703 141.408 91.3339 138.733 94.9302L138.115 95.6757L135.679 98.313L134.542 99.3505V99.3461ZM124.474 96.0506C125.737 95.9198 126.957 95.4969 128.068 94.7907C129.867 93.6399 131.588 92.2929 132.956 90.5492C135.666 87.0967 137.339 82.2798 136.89 77.7462C136.707 75.9066 136.154 74.237 135.126 72.8333C134.259 71.652 133.183 70.693 131.797 70.536C131.693 70.523 131.414 70.6232 131.409 70.7017L131.383 71.0112C130.66 71.3425 129.928 71.5212 129.157 71.4863C128.377 71.8961 127.706 72.3843 127.057 73.0251C124.813 75.2309 123.106 77.8464 121.659 80.7497C120.439 83.1952 119.742 85.8151 119.363 88.5963L119.354 91.0723C119.354 91.6695 119.59 92.2319 119.742 92.8073C120.348 95.0828 122.461 96.2642 124.474 96.0549V96.0506Z" fill="#FEFEFE"/>
<path d="M172.561 46.9475L172.771 47.4793C172.971 47.2396 173.306 47.4227 173.441 47.366C174.178 47.0521 174.653 47.3965 175.101 47.9545C175.681 48.6738 176.313 49.3887 176.243 50.4654C176.16 51.7427 175.589 52.8368 175.023 53.9441C174.613 54.7418 174.343 55.6442 173.507 56.0321L172.457 56.5204C172.243 56.6206 171.969 56.5509 171.821 56.4375C171.725 56.3634 171.664 56.1629 171.612 55.958C170.84 56.3242 169.834 56.3809 169.211 55.7139C168.998 55.4872 168.649 55.1516 168.571 54.8856C168.335 54.0879 167.682 53.8046 168.148 52.3399L168.932 49.8682C169.303 48.7043 170.697 47.5927 171.768 46.9911L172.57 46.9606L172.561 46.9475Z" fill="#FEFEFE"/>
<path d="M173.247 91.8479C174.523 91.5994 175.843 91.6909 176.209 92.8461C176.031 93.3387 175.517 93.5523 175.172 93.9403C175.961 93.7747 176.676 93.5436 177.355 94.0144C177.651 94.2193 177.686 94.7075 177.573 95.0432C177.455 95.4006 177.159 95.5707 176.754 95.7276L176.222 95.9368C176.31 96.0197 176.414 96.1199 176.436 96.2245C176.466 96.3553 176.388 96.5602 176.257 96.6517L175.421 97.249C175.948 98.2603 174.449 98.7049 173.077 99.0929L161.806 102.279L159.715 102.776C157.109 103.395 151.751 104.76 149.768 103.818C148.034 102.994 147.137 102.306 146.148 100.627C145.725 99.9124 145.564 99.0406 145.403 98.2429C145.294 97.698 145.529 97.2882 145.59 96.8305L145.86 94.8165C146.405 91.8566 147.246 89.0405 148.043 86.1242C147.551 85.6055 147.507 85.0257 147.063 84.3239C146.736 83.8051 147.01 83.3518 147.315 83.003C147.106 82.6848 147.128 82.3012 147.263 81.9045C147.437 81.3858 147.503 81.0588 147.956 80.7188C148.618 80.2262 149.293 79.7728 150.099 79.5374L152.931 70.9149C151.929 71.2419 150.77 70.867 149.96 70.1477C149.529 69.7597 149.32 69.1756 149.293 68.5391C148.718 68.064 148.71 67.1834 149.25 66.6603C149.346 66.0544 149.546 65.479 149.929 65.0212C151.372 64.3325 152.827 63.8922 154.343 63.4258L156.438 62.7806C156.665 61.8129 157.423 61.3551 158.268 61.1241C159.039 60.9105 159.741 61.1808 159.98 62.0395L168.772 60.601L170.759 60.3525L173.295 60.1956L177.325 60.0822C178.07 60.0604 178.797 60.1869 179.46 60.4484C179.93 60.6359 180.178 60.941 180.239 61.4685C180.252 61.5644 180.414 61.7431 180.383 61.8259C180.344 61.9436 180.148 62.0657 179.991 62.1049C179.882 62.2531 180.026 62.3447 180.139 62.2749C180.636 62.2662 181.011 62.4624 181.154 62.8547C181.337 63.3429 181.128 63.7266 180.693 64.084C180.405 64.3194 179.987 64.2235 179.56 64.2409C179.69 64.4894 179.93 64.5069 180.152 64.5853C180.453 65.1477 180.239 65.6838 179.721 65.9846L179.359 66.4423C177.8 67.0178 176.266 66.996 174.663 67.2009C169.953 67.8068 165.409 68.5653 160.808 69.5287L159.78 72.6281L157.989 77.9027L168.433 76.1416C169.866 75.8975 171.142 75.976 172.558 76.207C173.216 76.316 174.14 76.4119 174.449 77.1573C174.358 77.3883 174.301 77.6586 174.454 77.8984C174.423 78.1686 173.996 78.2733 173.796 78.3648C174.144 78.4128 174.375 78.4215 174.597 78.67C174.802 78.8966 174.902 79.0972 174.828 79.411C174.772 79.6464 174.475 79.7162 174.279 79.8731C173.369 80.6098 172.885 79.9341 172.654 80.479C172.955 80.479 173.256 80.4049 173.5 80.5662C173.743 80.7275 173.739 81.1809 173.669 81.4511C173.613 81.6647 173.36 81.8827 173.081 82.0135L171.892 82.5671C171.365 82.8156 170.824 82.894 170.241 83.003L160.66 84.8077L155.515 85.8888L153.31 94.3719L152.848 96.4774L155.009 95.9935L159.357 94.895L166.825 93.099L173.221 91.8479H173.247Z" fill="#FEFEFE"/>
<path d="M163.897 56.0525C163.452 57.1248 162.546 57.8528 161.501 57.8921C161.405 57.8572 161.348 57.5477 161.335 57.4169C161.004 57.7569 160.642 57.94 160.202 57.9531C159.793 57.9662 159.536 57.5913 159.292 57.3166C158.281 57.3384 157.776 56.3707 157.61 55.4553C157.392 54.2521 157.458 53.3236 157.954 52.2076C158.725 50.4727 159.353 49.1039 161.344 48.5633C161.723 48.4587 161.888 48.6156 162.124 48.8249L162.816 49.1082C163.33 48.8554 163.849 48.9339 164.202 49.3959C164.511 49.8013 164.886 50.1893 165.091 50.6819C165.422 51.4796 165.396 52.4212 165.056 53.2495L163.897 56.0525Z" fill="#FEFEFE"/>
<path d="M73.692 93.0974C73.753 92.971 73.8359 92.8751 73.9536 92.7922C74.0015 92.9404 73.9449 93.1584 73.692 93.0974Z" fill="#FEFEFE"/>
<path d="M0 95.8326V95.0348C0.0697081 93.8273 0.627373 93.2563 1.43337 92.8683L2.39622 84.0845C2.03896 83.5744 1.99975 82.9031 2.27858 82.0705C2.2263 80.9633 2.47028 80.0914 3.00616 79.455C3.32421 76.8394 3.72938 74.1934 4.22605 71.5212C3.40263 71.9746 2.22195 71.7261 1.92133 70.5534C1.36802 70.1132 1.14147 68.6615 1.2896 67.8943C1.54665 66.5648 4.47003 64.7906 5.44595 64.4767C5.71606 62.7068 7.81602 61.9178 8.82679 63.1035C10.234 62.6371 11.6674 62.2709 13.1138 61.9963C14.1943 61.7914 16.3509 61.7042 17.4793 61.7827C20.5465 62.005 24.2889 62.9379 25.4652 67.053C26.6982 71.3512 23.801 75.1481 21.0475 77.1925C23.2259 77.6154 25.3955 78.6485 26.8028 80.8586C27.9573 82.6721 28.0488 84.8255 27.7003 86.9572C27.5391 87.9424 27.3256 88.8317 26.8507 89.6817C23.0908 96.3731 15.2879 99.2938 9.27553 100.405C8.5436 100.541 7.56333 100.658 6.86189 100.371C6.34779 100.318 5.8337 100.257 5.3196 100.196C5.11047 101.425 3.66403 101.282 2.97131 100.898C2.64019 99.9913 2.39186 99.7602 1.64685 99.4812C1.20682 98.993 0.840854 98.3871 0.544595 97.6634C0.222195 97.0967 0.0435676 96.517 0 95.8238V95.8326ZM14.1507 74.9475C15.4316 74.1454 16.6515 73.4567 17.7669 72.3887C18.6905 71.5081 19.4791 70.5404 19.9452 69.1977C19.6141 68.7923 19.2351 68.4785 18.7776 68.3913L17.3442 68.1123L14.8653 68.1733C13.1879 68.3608 11.6064 68.7967 9.98569 69.359C9.86805 70.8324 9.62843 72.21 9.39752 73.6572L8.81808 77.271C9.36267 77.2231 9.82884 76.9659 10.3473 76.7784C11.6674 76.3076 12.8873 75.7322 14.1507 74.9388V74.9475ZM17.048 90.5841L18.4814 89.5814C19.3484 88.9712 20.1631 88.2824 20.8994 87.4367C21.4004 86.8613 21.762 86.2554 22.0495 85.4751C22.2979 84.8037 22.0931 83.9842 21.4962 83.6398C20.3896 83.0034 19.1959 82.707 17.976 82.5849H16.1461L15.2399 82.6546C13.3055 82.9336 11.4408 83.4131 9.57615 83.9537L7.94237 84.4288L6.70069 94.163C6.9621 94.3112 7.24529 94.2022 7.52412 94.1456L9.75913 93.6748C12.2686 92.9991 14.6736 92.0008 17.0567 90.5884L17.048 90.5841Z" fill="#FEFEFE"/>
</svg>
